<?xml version="1.0" encoding="utf-8"?>
<!-- Generator: Adobe Illustrator 26.2.1, SVG Export Plug-In . SVG Version: 6.00 Build 0)  -->
<svg version="1.1" id="Calque_1" xmlns="http://www.w3.org/2000/svg" xmlns:xlink="http://www.w3.org/1999/xlink" x="0px" y="0px"
	 viewBox="0 0 495.2 191.5" style="enable-background:new 0 0 495.2 191.5;" xml:space="preserve">
<style type="text/css">
	.st0{fill:#FFFFFF;}
	.st1{fill:#AFDFF9;}
	.st2{fill:#008BCE;}
	.st3{fill:#1D71B8;}
	.st4{fill:#009FE3;}
	.st5{fill:#5BC5F2;}
	.st6{fill:#004F8E;}
</style>
<path class="st0" d="M141.1,19.9H77.2V7.8c0-4.3-3.5-7.8-7.8-7.8h-41c-4.3,0-7.8,3.5-7.8,7.8v43.3H6c-3.3,0-5.9,3.5-5.9,7.8v24.3
	c0,4.3,2.6,7.8,5.9,7.8h35.9v7.3c0,4.3,3.5,7.8,7.8,7.8h8.3v0.5c0,4.3,3.5,7.8,7.8,7.8H108c4.3,0,7.8-3.5,7.8-7.8V60.4h25.3
	c4.3,0,7.8-3.5,7.8-7.8V27.7C148.9,23.4,145.4,19.9,141.1,19.9z"/>
<path class="st1" d="M77.2,59.8c0,4.3-3.5,7.8-7.8,7.8h-41c-4.3,0-7.8-3.5-7.8-7.8v-52C20.5,3.5,24,0,28.4,0h41
	c4.3,0,7.8,3.5,7.8,7.8V59.8z"/>
<path class="st2" d="M148.9,52.5c0,4.3-3.5,7.8-7.8,7.8H54.7c-4.3,0-7.8-3.5-7.8-7.8V27.7c0-4.3,3.5-7.8,7.8-7.8H141
	c4.3,0,7.8,3.5,7.8,7.8V52.5z"/>
<path class="st3" d="M57.9,44.3c0-4.3,3.5-7.8,7.8-7.8H108c4.3,0,7.8,3.5,7.8,7.8v62.5c0,4.3-3.5,7.8-7.8,7.8H65.7
	c-4.3,0-7.8-3.5-7.8-7.8V44.3z"/>
<path class="st4" d="M84.8,83.3c0,4.3-2.6,7.8-5.9,7.8h-73c-3.3,0-5.9-3.5-5.9-7.8V59c0-4.3,2.6-7.8,5.9-7.8h73
	c3.3,0,5.9,3.5,5.9,7.8V83.3z"/>
<path class="st5" d="M73.1,82.8c0-4.3-3.5-7.8-7.8-7.8H49.6c-4.3,0-7.8,3.5-7.8,7.8v15.6c0,4.3,3.5,7.8,7.8,7.8h15.6
	c4.3,0,7.8-3.5,7.8-7.8V82.8z"/>
<g>
	<path class="st6" d="M193.4,121.3c0,10.4-7.8,17.2-19.7,17.2h-24.8V79.7H172c11.7,0,19.4,6.3,19.4,16.7c0,5-2,9-5.5,11.7
		C190.5,110.8,193.4,115.3,193.4,121.3z M163.9,93.2v9.2h7.7c2.6,0,4.8-1.6,4.8-4.6c0-2.9-2.1-4.6-4.8-4.6H163.9z M178.3,120.1
		c0-3-2.1-5-5.1-5h-9.3v9.9h9.3C176.2,125.1,178.3,123,178.3,120.1z"/>
	<path class="st6" d="M238.1,124v14.5h-35.3V79.7h15V124H238.1z"/>
	<path class="st6" d="M245.7,119.2V79.7h15v38.1c0,4.2,2.1,7.4,8.2,7.4c6.1,0,8.2-3.2,8.2-7.4V79.7h15v39.5
		c0,12.6-9.7,20.6-23.3,20.6C255.5,139.8,245.7,131.8,245.7,119.2z"/>
	<path class="st6" d="M342.1,124.4v14.1h-37.8V79.7h37.4v14h-22.3v8.1h20.2v13.9h-20.2v8.7H342.1z"/>
</g>
<g>
	<path class="st4" d="M360.5,95.4c-1.1,2.8-3.2,7.5-5.7,13.4c-1.3,2.9-0.5,3.6,2,3.3c8.6-0.9,23.1-5.2,28.9-7.4c1-0.4,2.8,0.4,2,3.8
		c-2,9.3-6,19.7-6.2,23.1c-0.3,3.2,0.4,4.7,3,4.7c4.2,0,9.5-3,13.4-7.5c1.5-1.6,3.2-0.1,2.4,0.8c-3.9,4.4-12.6,10.3-17.9,10.7
		c-4.4,0.3-7.9-1-7.9-7c0-6.8,4.4-14.6,6.8-23.1c0.4-1.4,0.5-2.4-1.4-1.8c-8.4,2.9-17.9,5.6-25.5,7.5c-2.7,0.6-3.4,1.8-4.1,3.3
		l-1.1,3.2c-0.6,1.9-0.5,3.2,1,6.1c4.6,9.1,9.9,20.4,9.9,31.2c0,12.2-11,31.8-22.3,31.8c-5.3,0-8.7-5.6-8.7-17.5
		c0-11.9,4.9-28.5,11.2-44.6c1.4-3.6,2.2-6.1,1-7.9c-2-3.2-4.1-6.2-6-9c-5.5,0.1-6.7-5.5-3.3-5.6c2,0,8.1,2.2,13.2,3.8
		c1.9,0.6,2.9-0.8,4.2-3.2c5.2-9.9,9-18.8,12-24.2c9.4-17,21.3-32.8,24.2-33.6c3.3-0.9,4.6,1.4,4.6,3.3c0,1.5-0.8,2.9-1.9,1.5
		C383,53.5,367.8,77.3,360.5,95.4z M348.4,133.3c-1.5-2.8-2.4-1.8-3.7,1.8c-5.3,14.8-9.8,30.6-9.8,41c0,5.6,1,12.3,5.8,12.3
		c8.2,0,16.1-18.5,16.1-28.8C356.9,151.8,353.4,142.4,348.4,133.3z M394.8,70.8c1.3-2.4,4.9-3,5.8-1.4c0.9,1.6-0.1,8-2.2,11.9
		c-0.9,1.6-2.2,2.5-3.6,2.5c-1.3,0-2.5-0.8-3.6-2.7C393.4,77,393.6,73.2,394.8,70.8z"/>
	<path class="st4" d="M416,104.7c2.9,0,4.4,1.4,4.4,4.1c0,1-0.3,2.3-0.8,3.7c-3.2,9.1-6.7,15.1-8.7,22.1c-0.5,1.6,1.1,1.6,2.7-0.3
		c6.2-7.7,14.7-24.2,19.8-24.2c1.7,0,3.3,1.9,3.3,4.2c0,7-2,14.5-1.8,20.3c0.1,3.8,2.2,4.4,4.3,4.2c5.2-0.8,8.7-4.2,12.4-7.2
		c0.8-0.6,1.8,0.6,0.8,1.4c-5.7,4.7-12.4,10.3-17.4,9.9c-5.7-0.4-7.1-5.2-7-9.5c0.1-5.5,1.1-10,1.5-14.2c0.1-2-1.3-1.5-2.4-0.1
		c-7.7,9.4-11.9,19.8-18,21.7c-3.3,1-6.6-0.5-4.9-5.1c2.3-6.2,5.5-14.5,9.1-22.7c0.8-1.8,1.5-4.1,1.4-6.3
		C414.6,104.8,414.8,104.7,416,104.7z"/>
	<path class="st4" d="M493.9,110.1c1.4,0,1.9,1.4,0,1.9c-3.9,0.9-12.8,0.9-22.4,0.9c-1.4,0-1.7,0.9-0.6,1.9
		c2.5,2.5,5.3,6.1,5.3,10.8c0,7.2-7.4,17.6-19.3,16.7c-5.1-0.4-8.4-3.8-8.6-8.4c-0.3-5.2,4.7-13.4,10.1-13.4c1.6,0,3.8,0.6,3.8,2
		c0,0.9-0.4,1.5-0.6,2.3c-1.9,0.5-5.8,3.3-5.8,7.4c0,2.8,1.8,4.9,5.5,4.9c3.7,0,12.2-3.3,12.2-11.7c0-6-7.6-11.7-15.7-12.3
		c-1.9,0-3.8,0.1-5.6,0.3c-4.1,0.3-8.5-1-8.5-3.6c0-1.5,0.8-1.6,1-2.9C455.7,108.8,481.7,110.4,493.9,110.1z"/>
</g>
</svg>
