<svg width="159" height="268" viewBox="0 0 159 268" fill="none" xmlns="http://www.w3.org/2000/svg">
<path fill-rule="evenodd" clip-rule="evenodd" d="M137.542 21.979C113.415 6.10781 85.417 -1.14794 57.0501 2.30747L56.9383 1.38947C85.5392 -2.09444 113.754 5.22438 138.05 21.2064L137.542 21.979ZM143.907 30.2812C110.088 6.29663 68.0311 -0.441997 27.7249 16.4023L27.3683 15.549C67.9932 -1.42847 110.385 5.37354 144.442 29.5268L143.907 30.2812ZM147.143 36.4331C109.574 9.39862 61.7393 3.67805 17.1795 28.3202L16.732 27.5109C61.6277 2.68296 109.846 8.45502 147.683 35.6825L147.143 36.4331ZM148.55 39.8767C132.103 30.2299 113.81 23.3433 94.8115 20.6387L94.9418 19.7231C114.074 22.4467 132.481 29.3792 149.018 39.079L148.55 39.8767ZM12.0035 38.087C24.597 29.8453 37.6329 24.4352 50.7609 21.4206L50.9679 22.3219C37.9468 25.312 25.0123 30.6788 12.5099 38.8608L12.0035 38.087ZM149.81 43.7438C134.867 36.7187 118.494 31.0075 101.565 28.123L101.72 27.2113C118.749 30.1128 135.202 35.8545 150.203 42.9069L149.81 43.7438ZM52.4463 28.8838C38.33 32.0712 24.4106 38.1391 11.1803 47.9323L10.6301 47.189C23.9662 37.3175 38.0042 31.1967 52.2426 27.9817L52.4463 28.8838ZM150.859 48.0239C136.637 42.7503 121.197 37.9286 105.329 35.1714L105.487 34.2603C121.431 37.0307 136.929 41.8724 151.181 47.1568L150.859 48.0239ZM53.6188 35.4949C39.2296 38.7408 25.1677 45.113 11.9921 55.8328L11.4085 55.1154C24.6999 44.3014 38.8933 37.8686 53.4153 34.5928L53.6188 35.4949ZM107.859 41.07C123.148 43.6596 138.073 47.822 151.922 51.7786L151.668 52.6678C137.817 48.7107 122.937 44.5619 107.705 41.9818L107.859 41.07ZM54.2278 42.2051C40.477 45.4102 27.143 51.6806 14.7538 62.3465L14.1504 61.6457C26.6585 50.8773 40.1294 44.5416 54.0179 41.3044L54.2278 42.2051ZM141.095 54.2588C144.913 55.1223 148.673 55.9727 152.36 56.7719L152.164 57.6757C148.46 56.8728 144.69 56.0201 140.866 55.1553C130.609 52.8352 119.968 50.4282 109.188 48.663L109.337 47.7504C120.147 49.5204 130.83 51.9368 141.095 54.2588ZM53.7122 49.1912C41.6964 52.2961 30.0979 57.9605 19.326 67.3354L18.7189 66.6378C29.6054 57.1632 41.3345 51.4344 53.4808 48.2959L53.7122 49.1912ZM132.823 58.4839C139.5 59.7875 146.055 61.0671 152.426 62.1062L152.277 63.0189C145.891 61.9775 139.324 60.6953 132.651 59.3925C132.276 59.3193 131.9 59.246 131.524 59.1727C124.461 57.7944 117.283 56.4065 110.065 55.2647L110.209 54.3513C117.446 55.496 124.639 56.8869 131.702 58.265C132.076 58.338 132.45 58.411 132.823 58.4839ZM51.5294 56.7207C42.6906 59.4977 34.1694 63.8648 26.1401 70.417L25.5554 69.7005C33.6805 63.0701 42.3073 58.6487 51.2522 55.8384L51.5294 56.7207ZM127.703 63.8146C136.007 65.3053 144.179 66.7725 152.12 67.7606L152.006 68.6783C144.053 67.6887 135.825 66.2119 127.493 64.7166C121.846 63.7032 116.152 62.6813 110.463 61.7966L110.606 60.8828C116.344 61.7753 122.054 62.8004 127.703 63.8146ZM124.467 69.6604C133.541 71.2311 142.516 72.7847 151.246 73.6748L151.152 74.5948C142.392 73.7016 133.359 72.1383 124.264 70.5642C119.678 69.7703 115.075 68.9736 110.483 68.2588L110.625 67.345C115.252 68.0653 119.872 68.865 124.467 69.6604ZM122.422 76.6896C118.312 75.9785 114.2 75.2669 110.105 74.6213L110.249 73.7078C114.374 74.3582 118.504 75.0728 122.622 75.7855C131.755 77.3659 140.834 78.937 149.702 79.7786L149.615 80.6993C140.71 79.8543 131.572 78.273 122.422 76.6896ZM121.541 82.9739C117.461 82.2492 113.386 81.5257 109.338 80.8745L109.485 79.9615C113.566 80.6179 117.657 81.3446 121.746 82.0708C130.323 83.5941 138.889 85.1154 147.321 85.9827L147.227 86.9026C138.761 86.0319 130.137 84.5004 121.541 82.9739ZM121.258 89.3103C116.836 88.4899 112.431 87.673 108.075 86.9586L108.225 86.046C112.623 86.7673 117.045 87.5876 121.474 88.4094C128.99 89.8039 136.528 91.2025 144.013 92.1278L143.899 93.0456C136.393 92.1177 128.798 90.7089 121.258 89.3103ZM121.575 95.707C116.425 94.6959 111.312 93.6924 106.267 92.8639L106.416 91.9513C111.477 92.7823 116.603 93.7886 121.751 94.799C122.155 94.8784 122.559 94.9577 122.964 95.037C128.522 96.127 134.102 97.2064 139.665 98.0648L139.524 98.9788C133.94 98.1172 128.343 97.0343 122.786 95.9445C122.382 95.8654 121.978 95.7861 121.575 95.707ZM122.308 102.13C116.036 100.82 109.84 99.5254 103.757 98.571L103.9 97.6573C110 98.6143 116.244 99.9184 122.538 101.233C126.449 102.05 130.379 102.871 134.306 103.615L134.134 104.524C130.168 103.772 126.223 102.948 122.308 102.13ZM123.348 108.533C115.475 106.777 107.746 105.054 100.29 104.061L100.412 103.144C107.911 104.143 115.687 105.877 123.559 107.633C125.037 107.962 126.517 108.292 128 108.619L127.801 109.522C126.312 109.194 124.828 108.863 123.348 108.533ZM95.2155 108.569C103.395 109.119 112.002 110.986 120.805 113.074L120.591 113.974C111.789 111.886 103.248 110.036 95.1535 109.492L95.2155 108.569ZM84.3462 115.12C93.0835 113.609 102.596 114.868 112.511 117.039L112.313 117.942C102.427 115.778 93.0586 114.552 84.5038 116.031C75.9715 117.507 68.2237 121.677 61.574 130.368L60.8395 129.806C67.632 120.929 75.5866 116.635 84.3462 115.12ZM56.6277 115.688C54.3062 118.04 52.0798 120.79 49.9592 123.998C49.6693 124.442 49.3725 124.879 49.08 125.309C48.9199 125.544 48.761 125.778 48.6053 126.01L47.8375 125.494C48 125.252 48.1618 125.014 48.3232 124.777C48.6121 124.352 48.8993 123.93 49.1852 123.491L49.1868 123.489C51.338 120.235 53.602 117.437 55.9695 115.038L56.6277 115.688ZM53.3869 129.021C56.9895 123.363 60.941 119.115 65.2048 115.975L65.7531 116.72C61.5926 119.783 57.7157 123.944 54.1654 129.52L54.1625 129.525C54.0787 129.653 53.9974 129.779 53.9153 129.905C53.8334 130.032 53.7509 130.16 53.6657 130.29L52.8916 129.784C52.9751 129.656 53.0563 129.531 53.1382 129.404L53.1387 129.403C53.2202 129.277 53.3023 129.15 53.3869 129.021ZM70.2534 129.368C79.2906 121.102 90.0365 119.558 101.715 120.889L101.61 121.808C90.0797 120.494 79.6441 122.032 70.8776 130.05L70.2534 129.368ZM83.6939 131.606C91.742 127.397 100.695 126.978 110.192 128.327L110.062 129.242C100.662 127.907 91.9307 128.342 84.1224 132.425L83.6939 131.606ZM94.4164 136.848C104.817 133.221 116.417 134.835 128.592 137.96L128.362 138.856C116.216 135.738 104.847 134.19 94.7209 137.721L94.4164 136.848ZM101.754 143.563C113.102 140.06 125.689 142.446 138.827 146.195L138.573 147.084C125.444 143.338 113.093 141.031 102.027 144.447L101.754 143.563ZM106.799 150.924C118.631 146.907 131.672 149.396 145.269 153.404L145.007 154.291C131.422 150.286 118.632 147.884 107.096 151.8L106.799 150.924ZM110.307 158.789C122.455 153.733 135.765 155.895 149.64 159.966L149.379 160.853C135.535 156.791 122.497 154.718 110.662 159.643L110.307 158.789ZM112.693 167.198C125.124 160.651 138.654 162.152 152.744 166.108L152.494 166.998C138.467 163.06 125.232 161.639 113.124 168.016L112.693 167.198ZM154.75 172.887C140.578 169.272 127.154 168.813 114.734 177.039L114.223 176.268C126.959 167.833 140.697 168.348 154.979 171.991L154.75 172.887ZM156.377 178.637C144.291 176.036 132.687 176.198 121.665 182.582L121.664 182.582C119.536 183.81 117.475 185.079 115.473 186.359L114.975 185.58C116.986 184.295 119.058 183.018 121.201 181.781C132.493 175.241 144.356 175.104 156.571 177.733L156.377 178.637ZM157.534 184.368C147.774 182.808 138.278 183.365 129.056 187.827L129.056 187.827C124.195 190.175 119.721 192.721 115.551 195.376L115.055 194.596C119.251 191.923 123.757 189.359 128.653 186.995C138.089 182.429 147.788 181.873 157.68 183.455L157.534 184.368ZM158.251 190.178C150.878 189.517 143.61 190.228 136.426 193.07C128.215 196.317 121.141 200.228 114.858 204.495L114.338 203.73C120.672 199.428 127.806 195.485 136.086 192.21C143.427 189.306 150.844 188.585 158.333 189.257L158.251 190.178ZM22.2698 195.775C16.773 199.249 11.1361 202.154 5.28983 204.57L4.93664 203.715C10.7343 201.32 16.324 198.439 21.7757 194.993L22.2698 195.775ZM143.53 197.428C148.538 195.862 153.563 195.21 158.584 195.25L158.577 196.175C153.642 196.135 148.713 196.776 143.806 198.311C131.218 202.249 121.352 207.977 113.065 214.478L112.494 213.751C120.859 207.188 130.823 201.404 143.53 197.428ZM31.9164 198.048C22.3729 204.784 12.517 209.796 1.84305 213.389L1.54797 212.513C12.1351 208.948 21.911 203.978 31.3831 197.293L31.9164 198.048ZM150.974 202.659C153.471 202.067 155.968 201.685 158.454 201.485L158.528 202.407C156.086 202.604 153.636 202.978 151.186 203.559L151.185 203.559C131.649 208.147 118.728 217.595 108.411 228.128L107.75 227.481C118.157 216.857 131.226 207.297 150.974 202.659ZM0.873413 220.092C14.1982 216.301 25.9919 210.312 37.4371 201.94L37.9831 202.687C26.4584 211.116 14.5668 217.157 1.12649 220.981L0.873413 220.092ZM112.161 233.292C122.659 221.798 136.152 211.647 157.728 208.002L157.882 208.913C136.559 212.516 123.242 222.532 112.844 233.916C108.212 238.988 104.162 244.327 100.236 249.505C99.749 250.146 99.2642 250.786 98.7804 251.422C94.3999 257.18 90.1007 262.669 85.2582 267.222L84.6247 266.548C89.4044 262.054 93.6617 256.623 98.0444 250.862C98.5273 250.227 99.0118 249.588 99.4986 248.946C103.423 243.772 107.498 238.397 112.161 233.292ZM41.7784 209.109C29.5677 218.046 16.9643 224.46 2.08075 228.006L1.86642 227.106C16.6093 223.593 29.1019 217.241 41.2322 208.363L41.7784 209.109ZM105.416 254.291C116.737 238.146 129.33 220.187 156.379 214.517L156.569 215.422C129.909 221.01 117.553 238.617 106.237 254.742C103.774 258.252 101.36 261.691 98.8586 264.921L98.1274 264.355C100.586 261.18 102.972 257.778 105.416 254.291ZM43.8315 216.926C31.967 225.436 19.5668 231.583 4.45609 234.511L4.28015 233.603C19.233 230.706 31.5115 224.625 43.2925 216.174L43.8315 216.926ZM111.676 259.345C121.414 244.293 132.127 227.734 154.217 221.197L154.479 222.084C132.722 228.522 122.177 244.818 112.412 259.91C112.143 260.325 111.875 260.739 111.608 261.152L110.832 260.649C111.112 260.216 111.394 259.781 111.676 259.345ZM44.4884 225.88C33.7624 233.208 22.2927 238.469 8.15352 240.629L8.01387 239.715C21.991 237.58 33.3323 232.382 43.9667 225.116L44.4884 225.88ZM124.025 254.634C130.519 244.578 138.346 234.948 150.422 229.137L150.823 229.97C138.976 235.672 131.263 245.13 124.802 255.136L124.025 254.634ZM43.6726 235.834C34.7804 241.233 25.0311 245.026 13.2248 246.427L13.1159 245.508C24.7763 244.125 34.4004 240.382 43.1926 235.044L43.6726 235.834ZM41.4827 246.108C35.0581 249.112 28.0033 251.174 19.873 251.985L19.7812 251.065C27.8054 250.265 34.759 248.231 41.091 245.27L41.4827 246.108ZM89.8856 249.705C83.7803 256.968 77.6074 263.534 69.9733 267.971L69.5086 267.171C76.9956 262.819 83.0826 256.361 89.1776 249.11L89.8856 249.705ZM48.306 251.672C42.4472 254.548 36.0067 256.542 28.5591 257.333L28.4614 256.414C35.7971 255.634 42.1331 253.672 47.8984 250.842L48.306 251.672ZM59.7855 254.62C53.9662 258.318 47.5101 261.027 39.892 262.291L39.7407 261.379C47.224 260.137 53.5642 257.478 59.2895 253.839L59.7855 254.62ZM73.4043 254.904C67.7471 259.875 61.5719 263.872 54.1226 266.213L53.8453 265.33C61.1397 263.038 67.2045 259.121 72.7938 254.21L73.4043 254.904Z" fill="#41A7D8"/>
</svg>
