<svg width="184" height="290" viewBox="0 0 184 290" fill="none" xmlns="http://www.w3.org/2000/svg">
<path fill-rule="evenodd" clip-rule="evenodd" d="M95.0427 0.662492C95.2291 0.866232 95.215 1.1825 95.0113 1.3689C94.782 1.57871 94.5551 1.78628 94.3285 1.99837C94.1269 2.18709 93.8105 2.17666 93.6218 1.97507C93.4331 1.77348 93.4435 1.45707 93.6451 1.26835C93.8761 1.05209 94.1068 0.841052 94.335 0.632236L94.3363 0.631096C94.54 0.444697 94.8563 0.458753 95.0427 0.662492Z" fill="#41A7D8"/>
<path fill-rule="evenodd" clip-rule="evenodd" d="M102.498 0.670842C102.679 0.878707 102.658 1.19458 102.45 1.37637C101.093 2.56323 99.7641 3.71658 98.4624 4.77364C96.5099 6.3725 94.5506 8.08435 92.533 9.87345C92.3264 10.0567 92.0104 10.0377 91.8272 9.83108C91.644 9.62447 91.6629 9.30846 91.8696 9.12524C93.8897 7.33387 95.8612 5.61119 97.8297 3.99927L97.8313 3.99797C99.1176 2.95346 100.435 1.81071 101.792 0.623627C102 0.441839 102.316 0.462978 102.498 0.670842Z" fill="#41A7D8"/>
<path fill-rule="evenodd" clip-rule="evenodd" d="M110.752 0.685808C110.925 0.900621 110.892 1.21543 110.677 1.38895C109.418 2.4063 108.183 3.41651 106.969 4.40995C106.256 4.99337 105.55 5.571 104.85 6.1409C104.292 6.59405 103.74 7.04648 103.194 7.4942C101.638 8.76944 100.126 10.0093 98.6393 11.1376C96.1451 13.0466 93.6318 15.1391 91.0225 17.3115C90.9093 17.4058 90.7958 17.5002 90.6822 17.5948C90.47 17.7715 90.1547 17.7427 89.978 17.5304C89.8013 17.3182 89.8302 17.0029 90.0424 16.8263C90.158 16.7301 90.2734 16.634 90.3887 16.538C92.9932 14.3695 95.5211 12.2649 98.0323 10.3429L98.0339 10.3417C99.5043 9.22547 100.996 8.00274 102.548 6.73109C103.097 6.28109 103.653 5.82497 104.219 5.36528C104.915 4.79856 105.619 4.22228 106.331 3.63942C107.548 2.64425 108.787 1.62988 110.049 0.611046C110.263 0.437524 110.578 0.470996 110.752 0.685808Z" fill="#41A7D8"/>
<path fill-rule="evenodd" clip-rule="evenodd" d="M120.603 0.717975C120.759 0.945998 120.7 1.25711 120.472 1.41287C115.853 4.56822 111.449 7.9311 107.273 11.1203C106.548 11.6737 105.83 12.2218 105.119 12.7628C104.575 13.1769 104.036 13.5906 103.502 14.0008C101.904 15.2268 100.347 16.422 98.8162 17.5058C96.2632 19.3339 93.6964 21.33 91.0344 23.4C90.866 23.531 90.6973 23.6622 90.5281 23.7937L90.5266 23.7949C90.0862 24.1345 89.6429 24.4742 89.1974 24.8155C89.0613 24.9198 88.925 25.0242 88.7886 25.1288C88.5694 25.2968 88.2556 25.2554 88.0876 25.0362C87.9196 24.8171 87.961 24.5032 88.1802 24.3352C88.3171 24.2302 88.4537 24.1256 88.5899 24.0212C89.0349 23.6802 89.4763 23.342 89.9151 23.0037C90.0853 22.8713 90.2552 22.7392 90.4249 22.6073C93.083 20.5402 95.6649 18.5324 98.2349 16.6921L98.237 16.6906C99.7508 15.6186 101.287 14.44 102.88 13.217C103.418 12.8046 103.962 12.3871 104.514 11.967C105.222 11.428 105.938 10.8811 106.662 10.3284C110.838 7.13969 115.265 3.7587 119.908 0.587128C120.136 0.43137 120.447 0.489953 120.603 0.717975Z" fill="#41A7D8"/>
<path fill-rule="evenodd" clip-rule="evenodd" d="M134.179 0.791197C134.295 1.04211 134.185 1.339 133.934 1.45431C124.559 5.76311 115.861 11.9472 107.894 17.6122C107.054 18.2097 106.221 18.8015 105.397 19.3847C104.873 19.7565 104.353 20.1278 103.837 20.4963C102.188 21.6743 100.579 22.8234 98.9968 23.8692C96.41 25.5892 93.8138 27.4713 91.1272 29.4189C90.9445 29.5513 90.7614 29.6841 90.5778 29.8171L90.5769 29.8177C90.2097 30.0827 89.8339 30.3498 89.4584 30.6169C89.1431 30.841 88.828 31.0651 88.5182 31.2876L88.5161 31.2891C88.193 31.5186 87.8716 31.7487 87.5483 31.98C87.3162 32.1461 87.0832 32.3129 86.848 32.4806C86.6232 32.6409 86.311 32.5886 86.1506 32.3637C85.9903 32.1389 86.0426 31.8267 86.2675 31.6664C86.4992 31.5011 86.7313 31.335 86.9634 31.1689C87.2882 30.9365 87.6129 30.7041 87.936 30.4745C87.9356 30.4748 87.9352 30.4751 87.9348 30.4754L88.2265 30.8815L87.9369 30.4739C87.9366 30.4741 87.9363 30.4743 87.936 30.4745C88.2583 30.243 88.5732 30.0191 88.886 29.7968C89.2546 29.5348 89.6202 29.2749 89.9914 29.0071C90.1762 28.8732 90.3606 28.7395 90.5447 28.6061C93.2271 26.6614 95.8392 24.7679 98.4437 23.0361L98.4447 23.0354C100.01 22.0004 101.599 20.8658 103.245 19.6902C103.764 19.3198 104.288 18.9454 104.819 18.5687C105.643 17.9856 106.477 17.3927 107.319 16.7936C115.275 11.136 124.05 4.8962 133.516 0.545685C133.767 0.430366 134.064 0.540286 134.179 0.791197Z" fill="#41A7D8"/>
<path fill-rule="evenodd" clip-rule="evenodd" d="M136.675 7.69851C136.778 7.95489 136.653 8.24589 136.397 8.34849C126.313 12.3839 116.932 18.5756 108.318 24.2614C107.427 24.8494 106.544 25.4321 105.67 26.0063C105.069 26.4009 104.473 26.7959 103.882 27.1879C102.282 28.2488 100.717 29.2872 99.1718 30.2326C96.6696 31.7771 94.1671 33.46 91.5863 35.1955C91.2676 35.4098 90.9477 35.6249 90.6265 35.8407M136.675 7.69851C136.573 7.44214 136.282 7.31747 136.025 7.42007ZM136.025 7.42007C125.841 11.4957 116.374 17.7447 107.773 23.4226ZM107.773 23.4226C106.88 24.0124 105.996 24.596 105.121 25.1704ZM105.121 25.1704C104.511 25.5711 103.91 25.9698 103.315 26.3638C101.721 27.4213 100.177 28.4447 98.6493 29.38L98.6477 29.381C96.1274 30.9366 93.6075 32.6312 91.0287 34.3654C90.7097 34.5799 90.3898 34.795 90.0689 35.0106C89.6591 35.2867 89.2468 35.5593 88.8309 35.8342C88.5508 36.0194 88.2688 36.2058 87.9842 36.3955C86.7677 37.1984 85.5415 38.011 84.3055 38.8334C84.0756 38.9863 84.0133 39.2967 84.1662 39.5266C84.3192 39.7565 84.6296 39.8189 84.8595 39.6659C86.0947 38.8441 87.3202 38.0319 88.536 37.2295L88.5379 37.2282C88.8154 37.0433 89.0954 36.8581 89.3754 36.673C89.7953 36.3954 90.2152 36.1178 90.6265 35.8407" fill="#41A7D8"/>
<path fill-rule="evenodd" clip-rule="evenodd" d="M132.261 17.4512C132.372 17.7038 132.258 17.9991 132.005 18.1107C123.738 21.7636 115.929 26.5302 108.623 30.9904C107.72 31.5416 106.825 32.088 105.938 32.6271C105.369 32.9732 104.805 33.3194 104.244 33.6634C102.583 34.6827 100.954 35.6817 99.3473 36.5947C99.3472 36.5948 99.3475 36.5946 99.3473 36.5947L99.1 36.1602L99.3483 36.5942C99.348 36.5944 99.3476 36.5945 99.3473 36.5947C96.7031 38.1077 94.0538 39.7583 91.3291 41.4559C91.1118 41.5913 90.8941 41.7269 90.6759 41.8628C90.6756 41.863 90.6761 41.8627 90.6759 41.8628M88.0279 42.3167C88.3034 42.1469 88.5766 41.9799 88.8482 41.8139C89.2836 41.5478 89.715 41.2841 90.1459 41.0148C90.3653 40.8782 90.585 40.7413 90.8036 40.6051C93.525 38.9095 96.19 37.2491 98.8516 35.7262L98.853 35.7255C100.444 34.8214 102.052 33.835 103.709 32.8182C104.273 32.4726 104.842 32.1235 105.418 31.7729C106.303 31.2348 107.198 30.6884 108.102 30.1369C115.402 25.6803 123.269 20.8775 131.601 17.196C131.854 17.0844 132.149 17.1987 132.261 17.4512" fill="#41A7D8"/>
<path fill-rule="evenodd" clip-rule="evenodd" d="M127.649 27.2944C127.766 27.5448 127.657 27.8421 127.407 27.9585C120.979 30.9463 114.826 34.4043 108.958 37.7023C108.033 38.2224 107.115 38.7384 106.204 39.248C105.588 39.5924 104.977 39.9382 104.368 40.2819C102.726 41.2096 101.11 42.1227 99.5178 42.9565C96.8182 44.383 94.1136 45.9361 91.3368 47.5306C91.131 47.6488 90.9248 47.7671 90.7182 47.8857C90.2333 48.1647 89.7427 48.4421 89.2526 48.7192C89.0233 48.8489 88.7942 48.9784 88.5658 49.1081C87.8662 49.5035 87.1624 49.902 86.4559 50.302C84.5648 51.3727 82.6491 52.4573 80.7108 53.5417C80.4698 53.6765 80.1651 53.5904 80.0303 53.3494C79.8955 53.1084 79.9816 52.8038 80.2226 52.669C82.1586 51.5859 84.0709 50.5032 85.9613 49.4328C86.6681 49.0326 87.3719 48.6342 88.0727 48.2381C88.3041 48.1067 88.5348 47.9763 88.7648 47.8462C89.2532 47.5701 89.7383 47.2958 90.22 47.0187C90.4276 46.8995 90.6353 46.7803 90.8422 46.6614C93.6157 45.0688 96.3352 43.5072 99.0513 42.0719L99.053 42.071C100.631 41.2452 102.226 40.3437 103.863 39.4186C104.474 39.0732 105.092 38.7246 105.716 38.3753C106.624 37.8674 107.54 37.3523 108.464 36.8328C114.33 33.5358 120.52 30.057 126.985 27.0517C127.236 26.9353 127.533 27.044 127.649 27.2944Z" fill="#41A7D8"/>
<path fill-rule="evenodd" clip-rule="evenodd" d="M122.925 37.0819C123.042 37.3321 122.934 37.6297 122.684 37.7466C118.068 39.9049 113.59 42.2107 109.253 44.4447C108.32 44.9249 107.395 45.4017 106.475 45.873C105.853 46.1928 105.233 46.5142 104.617 46.834C102.956 47.6962 101.317 48.5467 99.6965 49.3232C96.9281 50.6618 94.1545 52.1249 91.3191 53.6206C91.135 53.7178 90.9506 53.8151 90.7659 53.9125L90.7645 53.9132C90.327 54.1422 89.8859 54.3704 89.4453 54.5984C89.1558 54.7481 88.8666 54.8977 88.5789 55.0474L88.5779 55.0479C87.5335 55.5879 86.4816 56.135 85.4225 56.6858C83.1658 57.8594 80.8764 59.05 78.5571 60.2262C78.3108 60.3511 78.0099 60.2527 77.885 60.0064C77.7601 59.7601 77.8585 59.4592 78.1048 59.3343C80.4195 58.1604 82.7011 56.9739 84.9553 55.8015C86.0154 55.2502 87.0695 54.7021 88.1181 54.1599C88.4099 54.0081 88.7003 53.8579 88.9899 53.7081C89.4278 53.4815 89.8639 53.2559 90.3001 53.0276C90.4858 52.9296 90.6712 52.8318 90.8565 52.7341C93.6884 51.2402 96.4768 49.7693 99.2619 48.4225L99.2635 48.4217C100.869 47.6526 102.487 46.813 104.143 45.9532C104.763 45.6319 105.387 45.3077 106.018 44.9834C106.934 44.5138 107.858 44.038 108.789 43.5586C113.128 41.3242 117.625 39.0079 122.26 36.8408C122.51 36.7238 122.808 36.8318 122.925 37.0819Z" fill="#41A7D8"/>
<path fill-rule="evenodd" clip-rule="evenodd" d="M118.136 46.6524C118.249 46.904 118.138 47.2003 117.886 47.3141C115.069 48.5895 112.301 49.8884 109.579 51.1655C108.629 51.6113 107.685 52.0544 106.746 52.493C106.1 52.7952 105.457 53.0989 104.817 53.4011C103.149 54.1895 101.501 54.9681 99.8709 55.6842C97.0154 56.9457 94.1589 58.3219 91.2474 59.7248C91.1027 59.7945 90.9579 59.8642 90.813 59.9341C90.4296 60.1194 90.0254 60.3093 89.6237 60.498C89.2734 60.6625 88.9249 60.8262 88.5939 60.9852L88.5909 60.9866C87.5223 61.491 86.4464 62.0012 85.3636 62.5147C82.4078 63.9164 79.4004 65.3427 76.3499 66.7396C76.0988 66.8546 75.8021 66.7443 75.6871 66.4932C75.5722 66.2421 75.6825 65.9454 75.9335 65.8304C78.9774 64.4365 81.9758 63.0145 84.9297 61.6137C86.0133 61.0998 87.0909 60.5888 88.1626 60.083C88.5236 59.9096 88.8692 59.7474 89.212 59.5865C89.598 59.4053 89.9807 59.2257 90.3783 59.0334C90.5248 58.9629 90.6717 58.8921 90.818 58.8216C93.7257 57.4206 96.5961 56.0377 99.4674 54.7693C101.084 54.059 102.714 53.2889 104.378 52.5026C105.02 52.1991 105.668 51.8931 106.322 51.5871C107.258 51.1501 108.2 50.7078 109.149 50.2625C111.873 48.9847 114.65 47.6816 117.474 46.4031C117.725 46.2893 118.022 46.4009 118.136 46.6524Z" fill="#41A7D8"/>
<path fill-rule="evenodd" clip-rule="evenodd" d="M113.402 55.8592C113.509 56.1136 113.39 56.4069 113.136 56.5143C112.024 56.9838 110.92 57.4521 109.823 57.9175C108.883 58.3165 107.948 58.7135 107.016 59.1073C106.359 59.3859 105.704 59.6663 105.052 59.9457C103.366 60.6674 101.698 61.3821 100.045 62.0398C97.1725 63.1942 94.2996 64.4484 91.3776 65.724C91.205 65.7993 91.0321 65.8748 90.8591 65.9503C90.4603 66.1249 90.0481 66.3013 89.6376 66.477C89.2911 66.6252 88.9458 66.773 88.6109 66.9187L88.6086 66.9197C87.5933 67.3552 86.5726 67.7948 85.5466 68.2367C81.7977 69.8513 77.978 71.4964 74.0931 73.087C73.8376 73.1916 73.5456 73.0693 73.441 72.8137C73.3363 72.5582 73.4587 72.2662 73.7142 72.1616C77.5899 70.5747 81.3987 68.9343 85.1464 67.3202C86.1732 66.878 87.1955 66.4378 88.2132 66.0012C88.5665 65.8475 88.9113 65.7 89.2541 65.5534C89.6549 65.3819 90.0529 65.2117 90.4586 65.034C90.6328 64.958 90.8074 64.8818 90.9813 64.8058C93.9001 63.5317 96.786 62.2719 99.6726 61.1117L99.6742 61.111C101.315 60.4583 102.965 59.7514 104.646 59.0315C105.301 58.751 105.961 58.4685 106.626 58.1865C107.553 57.7946 108.489 57.3974 109.43 56.9981C110.53 56.5315 111.637 56.0617 112.747 55.5931C113.001 55.4857 113.295 55.6048 113.402 55.8592Z" fill="#41A7D8"/>
<path fill-rule="evenodd" clip-rule="evenodd" d="M144.67 45.24C144.728 45.5099 144.556 45.7761 144.287 45.8344C144.107 45.8733 143.925 45.9126 143.738 45.9519C143.468 46.0088 143.203 45.8359 143.146 45.5656C143.089 45.2954 143.262 45.0302 143.532 44.9734C143.716 44.9347 143.895 44.896 144.075 44.857C144.345 44.7986 144.611 44.9701 144.67 45.24Z" fill="#41A7D8"/>
<path fill-rule="evenodd" clip-rule="evenodd" d="M145.007 53.1497C145.06 53.4206 144.884 53.6835 144.613 53.7369C142.375 54.1777 140.156 54.6863 137.951 55.2534C137.683 55.3221 137.411 55.1611 137.342 54.8936C137.273 54.6262 137.434 54.3536 137.702 54.2849C139.924 53.7135 142.162 53.2005 144.419 52.7558C144.69 52.7024 144.953 52.8788 145.007 53.1497Z" fill="#41A7D8"/>
<path fill-rule="evenodd" clip-rule="evenodd" d="M108.739 64.6399C108.836 64.8984 108.705 65.1866 108.446 65.2836C108.207 65.3734 107.97 65.4642 107.732 65.5553C107.584 65.612 107.435 65.6687 107.286 65.7254C106.605 65.9849 105.925 66.2462 105.248 66.5066C103.559 67.1562 101.884 67.8006 100.224 68.3993C97.2431 69.4802 94.2616 70.6516 91.2424 71.8378C91.1304 71.8818 91.0183 71.9259 90.9062 71.9699M88.26 71.9242C88.5302 71.8192 88.7982 71.716 89.0649 71.6133C89.5578 71.4236 90.0465 71.2355 90.5377 71.0403L90.5395 71.0396C90.6535 70.9948 90.7674 70.9501 90.8813 70.9053C93.8971 69.7204 96.8897 68.5446 99.8831 67.4591C101.533 66.8641 103.194 66.2253 104.879 65.5771C105.558 65.3159 106.242 65.0531 106.93 64.7909C107.074 64.7362 107.221 64.68 107.369 64.6235C107.61 64.5313 107.854 64.4379 108.095 64.3473C108.354 64.2503 108.642 64.3813 108.739 64.6399" fill="#41A7D8"/>
<path fill-rule="evenodd" clip-rule="evenodd" d="M145.008 61.1166C145.057 61.3883 144.877 61.6485 144.605 61.6978C140.409 62.4586 136.258 63.4331 132.163 64.5395C131.896 64.6115 131.622 64.4537 131.55 64.1872C131.478 63.9206 131.635 63.6461 131.902 63.5741C136.019 62.462 140.197 61.4807 144.427 60.7138C144.699 60.6646 144.959 60.8449 145.008 61.1166Z" fill="#41A7D8"/>
<path fill-rule="evenodd" clip-rule="evenodd" d="M104.2 72.9633C104.289 73.2247 104.15 73.5089 103.888 73.5981C102.719 73.9977 101.554 74.3878 100.398 74.7633C97.4938 75.7058 94.5975 76.7191 91.6688 77.7438C91.4296 77.8274 91.1902 77.9112 90.9505 77.995C90.5099 78.1484 90.0642 78.3014 89.6197 78.454C89.2899 78.5672 88.9604 78.6803 88.6331 78.7935C87.4167 79.2125 86.1937 79.636 84.9653 80.0613C79.8807 81.8218 74.6949 83.6173 69.4184 85.2924C69.1552 85.376 68.8741 85.2304 68.7905 84.9672C68.707 84.704 68.8526 84.4229 69.1158 84.3393C74.3787 82.6685 79.5492 80.8782 84.6329 79.1181C85.8626 78.6923 87.0872 78.2683 88.3068 77.8482C88.6397 77.7331 88.9702 77.6196 89.2997 77.5065C89.7408 77.3551 90.18 77.2044 90.6204 77.0511C90.8606 76.9671 91.1007 76.8831 91.3406 76.7992C94.267 75.7753 97.1735 74.7584 100.089 73.8122M104.2 72.9633C104.111 72.702 103.826 72.5626 103.565 72.6519ZM103.565 72.6519C102.399 73.0501 101.239 73.4385 100.089 73.8122Z" fill="#41A7D8"/>
<path fill-rule="evenodd" clip-rule="evenodd" d="M145.009 69.0691C145.054 69.3415 144.87 69.5988 144.597 69.6437C138.477 70.6524 132.441 72.0351 126.502 73.6037C126.235 73.6743 125.961 73.515 125.89 73.248C125.82 72.981 125.979 72.7074 126.246 72.6369C132.207 71.0627 138.275 69.6723 144.435 68.657C144.707 68.6121 144.964 68.7966 145.009 69.0691Z" fill="#41A7D8"/>
<path fill-rule="evenodd" clip-rule="evenodd" d="M99.8037 80.8274C99.8813 81.0924 99.7295 81.3702 99.4645 81.4478C96.6468 82.2737 93.8332 83.1387 90.997 84.0143C90.4523 84.1845 89.9039 84.3504 89.3573 84.5157C89.1209 84.5873 88.8848 84.6587 88.6494 84.7303C87.3942 85.1121 86.1337 85.4974 84.868 85.8843C79.0257 87.6701 73.0729 89.4898 67.0156 91.1512C66.7493 91.2243 66.4742 91.0676 66.4011 90.8013C66.3281 90.535 66.4847 90.2599 66.751 90.1869C72.793 88.5296 78.7292 86.7151 84.571 84.9294C85.8378 84.5421 87.1002 84.1563 88.3583 83.7736M99.8037 80.8274C99.726 80.5624 99.4482 80.4105 99.1832 80.4882ZM99.1832 80.4882C96.3576 81.3164 93.5377 82.1833 90.7013 83.0591ZM90.7013 83.0591L90.6997 83.0596ZM90.6997 83.0596C90.1592 83.2285 89.6177 83.3923 89.0729 83.557ZM89.0729 83.557C88.8354 83.6289 88.5972 83.7009 88.3583 83.7736Z" fill="#41A7D8"/>
<path fill-rule="evenodd" clip-rule="evenodd" d="M145.011 76.9883C145.051 77.2615 144.862 77.5156 144.589 77.5557C136.631 78.7251 128.781 80.424 121.067 82.3001C120.799 82.3653 120.529 82.2007 120.463 81.9324C120.398 81.6641 120.563 81.3937 120.831 81.3284C128.56 79.4486 136.443 77.742 144.443 76.5663C144.716 76.5262 144.97 76.7151 145.011 76.9883Z" fill="#41A7D8"/>
<path fill-rule="evenodd" clip-rule="evenodd" d="M95.5111 88.3219C95.5821 88.5888 95.4233 88.8627 95.1564 88.9336C93.7846 89.2985 92.4131 89.6632 91.0423 90.0327M88.4039 89.6994C88.8013 89.5921 89.1985 89.4873 89.5942 89.3829C89.9909 89.2783 90.3868 89.1738 90.7817 89.0672C92.154 88.6974 93.5264 88.3324 94.8976 87.9677L94.8994 87.9672C95.1662 87.8963 95.4401 88.0551 95.5111 88.3219" fill="#41A7D8"/>
<path fill-rule="evenodd" clip-rule="evenodd" d="M91.3072 95.4866C91.3684 95.7559 91.1997 96.0238 90.9305 96.085C90.5559 96.1701 90.1801 96.2552 89.8046 96.3403L89.8031 96.3406C89.4275 96.4257 89.0521 96.5108 88.6779 96.5958C87.5871 96.8434 86.4933 97.0923 85.3969 97.3418C77.7492 99.0824 69.969 100.853 62.0808 102.408C61.8099 102.461 61.547 102.285 61.4936 102.014C61.4402 101.743 61.6165 101.48 61.8874 101.427C69.7602 99.875 77.5251 98.1078 85.1741 96.367C86.2706 96.1174 87.3647 95.8684 88.4564 95.6207C88.8309 95.5355 89.2066 95.4504 89.5821 95.3654C89.9579 95.2802 90.3344 95.1949 90.7088 95.1098C90.9781 95.0486 91.246 95.2173 91.3072 95.4866Z" fill="#41A7D8"/>
<path fill-rule="evenodd" clip-rule="evenodd" d="M145.012 84.8891C145.047 85.163 144.853 85.4134 144.579 85.4484C134.884 86.6863 125.311 88.556 115.897 90.5644C115.626 90.622 115.361 90.4497 115.303 90.1797C115.246 89.9096 115.418 89.644 115.688 89.5864C125.111 87.5761 134.716 85.6996 144.453 84.4564C144.726 84.4214 144.977 84.6151 145.012 84.8891Z" fill="#41A7D8"/>
<path fill-rule="evenodd" clip-rule="evenodd" d="M87.2242 102.3C87.2757 102.572 87.0976 102.833 86.8263 102.885C86.5841 102.931 86.3419 102.977 86.0995 103.023C77.3738 104.681 68.5079 106.366 59.549 107.82C59.2764 107.865 59.0196 107.679 58.9753 107.407C58.9311 107.134 59.1162 106.877 59.3887 106.833C68.3342 105.381 77.1884 103.698 85.9178 102.04C86.1585 101.994 86.3991 101.948 86.6396 101.902C86.9109 101.851 87.1726 102.029 87.2242 102.3Z" fill="#41A7D8"/>
<path fill-rule="evenodd" clip-rule="evenodd" d="M145.013 92.7608C145.042 93.0354 144.844 93.2819 144.569 93.3114C133.266 94.5257 122.056 96.3962 111.006 98.3806C110.734 98.4295 110.474 98.2487 110.425 97.9769C110.376 97.7051 110.557 97.4452 110.829 97.3964C121.885 95.4109 133.123 93.5353 144.462 92.3171C144.737 92.2876 144.983 92.4862 145.013 92.7608Z" fill="#41A7D8"/>
<path fill-rule="evenodd" clip-rule="evenodd" d="M145.014 100.624C145.038 100.899 144.834 101.141 144.559 101.165C132.41 102.209 120.301 103.77 108.309 105.511C108.035 105.55 107.782 105.361 107.742 105.088C107.702 104.814 107.892 104.561 108.165 104.521C120.167 102.779 132.297 101.216 144.473 100.168C144.748 100.145 144.99 100.349 145.014 100.624Z" fill="#41A7D8"/>
<path fill-rule="evenodd" clip-rule="evenodd" d="M83.262 108.789C83.3037 109.062 83.1162 109.317 82.8433 109.359C74.304 110.663 65.6693 111.948 56.9897 113.092C56.7159 113.128 56.4647 112.935 56.4286 112.661C56.3925 112.388 56.5852 112.136 56.859 112.1C65.5283 110.958 74.155 109.674 82.6923 108.37C82.9653 108.329 83.2204 108.516 83.262 108.789Z" fill="#41A7D8"/>
<path fill-rule="evenodd" clip-rule="evenodd" d="M78.8225 115.876C78.8731 116.147 78.6941 116.408 78.4226 116.459L77.9694 116.543C69.7695 118.073 61.4618 119.622 53.0449 120.913C52.772 120.955 52.5168 120.768 52.4749 120.495C52.433 120.222 52.6203 119.967 52.8933 119.925C61.294 118.636 69.5881 117.089 77.7926 115.559L78.2393 115.476C78.5107 115.425 78.7718 115.604 78.8225 115.876Z" fill="#41A7D8"/>
<path fill-rule="evenodd" clip-rule="evenodd" d="M145.019 105.52C145.04 105.795 144.832 106.035 144.557 106.055C141.151 106.303 137.756 106.599 134.362 106.958C125.545 107.89 116.879 109.313 108.326 110.86C108.054 110.909 107.794 110.728 107.745 110.457C107.696 110.185 107.876 109.925 108.148 109.876C116.71 108.328 125.403 106.9 134.256 105.964C137.663 105.603 141.069 105.306 144.485 105.057C144.76 105.037 144.999 105.244 145.019 105.52Z" fill="#41A7D8"/>
<path fill-rule="evenodd" clip-rule="evenodd" d="M145.02 110.457C145.035 110.733 144.824 110.969 144.548 110.984C140.961 111.183 137.374 111.464 133.792 111.838C125.081 112.74 116.632 114.385 108.343 116.184C108.073 116.242 107.807 116.071 107.748 115.801C107.69 115.531 107.861 115.265 108.131 115.207C116.431 113.405 124.923 111.751 133.688 110.844C137.287 110.468 140.89 110.185 144.493 109.985C144.769 109.97 145.005 110.181 145.02 110.457Z" fill="#41A7D8"/>
<path fill-rule="evenodd" clip-rule="evenodd" d="M74.0216 123.374C74.0822 123.643 73.913 123.911 73.6436 123.972C65.5001 125.806 57.2109 127.643 48.7094 129.023C48.4368 129.067 48.18 128.882 48.1357 128.609C48.0915 128.337 48.2766 128.08 48.5492 128.035C57.0171 126.661 65.2791 124.83 73.4239 122.996C73.6933 122.935 73.9609 123.105 74.0216 123.374Z" fill="#41A7D8"/>
<path fill-rule="evenodd" clip-rule="evenodd" d="M145.02 115.398C145.031 115.674 144.816 115.907 144.54 115.917C140.765 116.063 136.99 116.32 133.222 116.708C124.623 117.59 116.39 119.436 108.36 121.473C108.092 121.541 107.82 121.379 107.752 121.111C107.684 120.844 107.846 120.572 108.114 120.504C116.158 118.463 124.447 116.603 133.119 115.713M145.02 115.398C145.01 115.123 144.777 114.907 144.502 114.918ZM144.502 114.918C140.707 115.064 136.911 115.323 133.119 115.713Z" fill="#41A7D8"/>
<path fill-rule="evenodd" clip-rule="evenodd" d="M68.7878 131.39C68.8577 131.657 68.6977 131.93 68.4306 132C60.5402 134.064 52.4528 136.03 44.0477 137.289C43.7746 137.33 43.5201 137.142 43.4792 136.869C43.4382 136.596 43.6265 136.341 43.8995 136.301C52.2499 135.049 60.2952 133.094 68.1775 131.033C68.4447 130.963 68.7179 131.123 68.7878 131.39Z" fill="#41A7D8"/>
<path fill-rule="evenodd" clip-rule="evenodd" d="M145.021 120.36C145.026 120.636 144.807 120.865 144.531 120.87C140.568 120.953 136.607 121.176 132.652 121.578C124.169 122.44 116.151 124.463 108.377 126.727C108.112 126.805 107.834 126.652 107.757 126.387C107.68 126.122 107.832 125.845 108.097 125.767C115.891 123.497 123.977 121.454 132.551 120.583C136.535 120.178 140.524 119.953 144.51 119.87C144.786 119.865 145.015 120.084 145.021 120.36Z" fill="#41A7D8"/>
<path fill-rule="evenodd" clip-rule="evenodd" d="M63.0488 139.976C63.1246 140.241 62.9708 140.518 62.7053 140.594C55.9798 142.514 49.0511 144.209 41.7891 145.206L41.7871 145.206C40.9068 145.323 40.0321 145.426 39.1567 145.528C38.8824 145.56 38.6341 145.364 38.6021 145.089C38.5701 144.815 38.7665 144.567 39.0408 144.535C39.9166 144.433 40.7832 144.331 41.654 144.215C48.8507 143.227 55.7289 141.545 62.4308 139.632C62.6963 139.556 62.973 139.71 63.0488 139.976Z" fill="#41A7D8"/>
<path fill-rule="evenodd" clip-rule="evenodd" d="M56.885 149.016C56.9601 149.282 56.8056 149.558 56.5398 149.633C52.0145 150.912 47.3564 151.993 42.5184 152.702C39.7454 153.108 36.959 153.392 34.1694 153.577C33.8939 153.596 33.6557 153.387 33.6373 153.112C33.619 152.836 33.8275 152.598 34.103 152.58C36.8694 152.396 39.6293 152.115 42.3734 151.713C42.3734 151.713 42.3733 151.713 42.3734 151.713M42.3734 151.713C47.1585 151.011 51.7733 149.942 56.2678 148.671C56.5336 148.596 56.8099 148.751 56.885 149.016" fill="#41A7D8"/>
<path fill-rule="evenodd" clip-rule="evenodd" d="M145.021 125.342C145.021 125.618 144.798 125.842 144.521 125.842C140.372 125.847 136.224 126.036 132.082 126.453C123.719 127.289 115.917 129.475 108.393 131.947C108.131 132.034 107.848 131.891 107.762 131.628C107.676 131.366 107.818 131.084 108.081 130.997C115.629 128.517 123.512 126.305 131.982 125.458M145.021 125.342C145.02 125.066 144.796 124.842 144.52 124.842ZM144.52 124.842C140.341 124.847 136.16 125.038 131.982 125.458Z" fill="#41A7D8"/>
<path fill-rule="evenodd" clip-rule="evenodd" d="M50.4629 158.225C50.528 158.493 50.3631 158.763 50.0948 158.828C47.8553 159.371 45.5742 159.841 43.2376 160.204C38.5934 160.923 33.9035 161.255 29.1984 161.304C28.9223 161.307 28.6961 161.086 28.6933 160.809C28.6904 160.533 28.9119 160.307 29.188 160.304C33.8532 160.256 38.4946 159.926 43.0843 159.216M50.4629 158.225C50.3979 157.956 50.1276 157.792 49.8592 157.857ZM49.8592 157.857C47.6423 158.394 45.389 158.858 43.0843 159.216Z" fill="#41A7D8"/>
<path fill-rule="evenodd" clip-rule="evenodd" d="M144.506 130.844C140.179 130.761 135.84 130.902 131.512 131.328C123.269 132.134 115.682 134.463 108.409 137.133C108.15 137.228 107.863 137.095 107.767 136.836C107.672 136.577 107.805 136.289 108.064 136.194C115.368 133.513 123.047 131.151 131.414 130.333C135.785 129.902 140.164 129.761 144.525 129.844C144.802 129.849 145.021 130.077 145.016 130.353C145.011 130.629 144.783 130.849 144.506 130.844Z" fill="#41A7D8"/>
<path fill-rule="evenodd" clip-rule="evenodd" d="M44.112 167.166C44.1559 167.439 43.9704 167.695 43.6978 167.739C37.307 168.768 30.8201 168.972 24.3236 168.66C24.0478 168.646 23.835 168.412 23.8482 168.136C23.8615 167.86 24.0959 167.648 24.3717 167.661C30.8164 167.971 37.2318 167.767 43.5389 166.752C43.8115 166.708 44.0681 166.894 44.112 167.166Z" fill="#41A7D8"/>
<path fill-rule="evenodd" clip-rule="evenodd" d="M144.496 135.859C139.981 135.68 135.455 135.763 130.942 136.203C122.829 136.984 115.451 139.436 108.425 142.284C108.169 142.388 107.877 142.264 107.773 142.008C107.67 141.752 107.793 141.461 108.049 141.357C115.112 138.494 122.592 136.002 130.845 135.207C135.411 134.762 139.982 134.679 144.536 134.86C144.812 134.871 145.027 135.104 145.016 135.38C145.005 135.655 144.772 135.87 144.496 135.859Z" fill="#41A7D8"/>
<path fill-rule="evenodd" clip-rule="evenodd" d="M19.1507 175.079C19.1797 174.805 19.4259 174.606 19.7005 174.635C25.6637 175.265 31.6264 175.501 37.5098 175.066C37.7852 175.046 38.025 175.253 38.0453 175.528C38.0657 175.803 37.859 176.043 37.5836 176.063C31.6253 176.504 25.6004 176.264 19.5954 175.629C19.3208 175.6 19.1217 175.354 19.1507 175.079Z" fill="#41A7D8"/>
<path fill-rule="evenodd" clip-rule="evenodd" d="M144.486 140.889C139.783 140.604 135.071 140.628 130.372 141.078C122.397 141.834 115.224 144.384 108.44 147.396C108.187 147.508 107.892 147.394 107.78 147.141C107.668 146.889 107.782 146.594 108.034 146.482C114.862 143.451 122.148 140.853 130.277 140.082C135.036 139.627 139.801 139.603 144.546 139.891C144.822 139.908 145.032 140.145 145.015 140.421C144.998 140.696 144.761 140.906 144.486 140.889Z" fill="#41A7D8"/>
<path fill-rule="evenodd" clip-rule="evenodd" d="M144.474 145.938C139.59 145.527 134.692 145.484 129.802 145.948C121.966 146.684 115.001 149.313 108.454 152.468C108.205 152.588 107.906 152.484 107.786 152.235C107.667 151.986 107.771 151.687 108.02 151.567C114.618 148.388 121.704 145.704 129.708 144.952C134.666 144.482 139.624 144.526 144.558 144.942C144.833 144.965 145.037 145.207 145.014 145.482C144.991 145.757 144.749 145.962 144.474 145.938Z" fill="#41A7D8"/>
<path fill-rule="evenodd" clip-rule="evenodd" d="M14.6461 181.611C14.6954 181.339 14.9556 181.159 15.2273 181.208C16.3735 181.416 17.5193 181.6 18.6795 181.759C23.0668 182.356 27.4533 182.738 31.8115 182.786C32.0876 182.789 32.309 183.016 32.3059 183.292C32.3028 183.568 32.0765 183.789 31.8004 183.786C27.3917 183.737 22.9628 183.351 18.5444 182.75C17.3694 182.589 16.2086 182.403 15.0488 182.192C14.7771 182.143 14.5968 181.883 14.6461 181.611Z" fill="#41A7D8"/>
<path fill-rule="evenodd" clip-rule="evenodd" d="M144.462 151.026C139.396 150.475 134.307 150.349 129.232 150.823C121.543 151.529 114.783 154.223 108.467 157.502C108.222 157.629 107.92 157.534 107.793 157.288C107.666 157.043 107.761 156.742 108.006 156.614C114.379 153.306 121.27 150.55 129.14 149.827C134.292 149.347 139.449 149.474 144.57 150.032C144.845 150.062 145.043 150.309 145.013 150.583C144.983 150.858 144.736 151.056 144.462 151.026Z" fill="#41A7D8"/>
<path fill-rule="evenodd" clip-rule="evenodd" d="M10.382 187.711C10.4503 187.443 10.7226 187.282 10.9901 187.35C13.7396 188.052 16.5259 188.637 19.3493 189.072M10.382 187.711C10.3137 187.979 10.4752 188.251 10.7428 188.319ZM10.7428 188.319C13.52 189.028 16.3383 189.62 19.1972 190.061ZM19.3493 189.072C21.7142 189.436 24.0781 189.731 26.4408 189.944C26.7158 189.969 26.9187 190.212 26.8939 190.487C26.8691 190.762 26.626 190.965 26.351 190.94C23.9654 190.725 21.5806 190.427 19.1972 190.061" fill="#41A7D8"/>
<path fill-rule="evenodd" clip-rule="evenodd" d="M144.45 156.133C139.201 155.432 133.922 155.215 128.662 155.698C121.125 156.38 114.563 159.114 108.48 162.496C108.238 162.631 107.934 162.544 107.8 162.302C107.666 162.061 107.752 161.757 107.994 161.622C114.142 158.204 120.842 155.401 128.571 154.702C133.918 154.211 139.274 154.432 144.582 155.142C144.856 155.179 145.048 155.43 145.012 155.704C144.975 155.977 144.723 156.17 144.45 156.133Z" fill="#41A7D8"/>
<path fill-rule="evenodd" clip-rule="evenodd" d="M6.34818 193.411C6.43389 193.148 6.71617 193.005 6.97868 193.091C11.2357 194.481 15.5858 195.613 20.0199 196.381C20.4693 196.459 20.9191 196.531 21.3719 196.604C21.6446 196.648 21.8299 196.905 21.7859 197.178C21.742 197.45 21.4853 197.636 21.2127 197.592C20.7607 197.519 20.3056 197.445 19.8502 197.367C15.3618 196.589 10.964 195.444 6.66829 194.041C6.40579 193.956 6.26247 193.673 6.34818 193.411Z" fill="#41A7D8"/>
<path fill-rule="evenodd" clip-rule="evenodd" d="M144.438 161.259C139.006 160.398 133.541 160.081 128.092 160.573C120.711 161.23 114.352 163.99 108.491 167.452C108.253 167.593 107.947 167.514 107.806 167.276C107.666 167.039 107.745 166.732 107.983 166.591C113.914 163.087 120.419 160.252 128.003 159.577C133.549 159.076 139.099 159.401 144.594 160.272C144.867 160.315 145.053 160.571 145.01 160.844C144.967 161.116 144.71 161.302 144.438 161.259Z" fill="#41A7D8"/>
<path fill-rule="evenodd" clip-rule="evenodd" d="M2.52894 198.789C2.62929 198.532 2.91919 198.405 3.17645 198.505C8.84268 200.716 14.6996 202.545 20.6954 203.691C29.71 205.416 38.7155 206.043 47.3878 204.213C49.4645 203.776 51.4617 203.189 53.3989 202.495C53.6589 202.402 53.9451 202.537 54.0383 202.797C54.1314 203.057 53.9961 203.343 53.7362 203.436C51.762 204.143 49.721 204.744 47.5943 205.192C38.7424 207.059 29.5913 206.411 20.5076 204.673C14.438 203.513 8.5214 201.664 2.81305 199.437C2.55578 199.337 2.42858 199.047 2.52894 198.789Z" fill="#41A7D8"/>
<path fill-rule="evenodd" clip-rule="evenodd" d="M144.425 166.399C138.812 165.36 133.156 164.941 127.523 165.443C120.306 166.08 114.14 168.838 108.502 172.36C108.268 172.506 107.959 172.435 107.813 172.201C107.666 171.966 107.738 171.658 107.972 171.512C113.689 167.94 120.007 165.103 127.434 164.446C133.175 163.936 138.923 164.364 144.607 165.416C144.879 165.466 145.058 165.727 145.008 165.999C144.957 166.27 144.696 166.45 144.425 166.399Z" fill="#41A7D8"/>
<path fill-rule="evenodd" clip-rule="evenodd" d="M68.0843 202.676C68.2439 202.901 68.1908 203.214 67.9655 203.373C62.172 207.48 55.7946 211.043 48.3188 212.692C39.4605 214.645 30.2748 213.893 21.1607 211.983C14.1515 210.515 7.33155 208.113 0.806185 205.287C0.552783 205.178 0.436321 204.883 0.546059 204.63C0.655797 204.377 0.950179 204.26 1.20358 204.37C7.68751 207.178 14.4413 209.554 21.3657 211.004C30.4081 212.899 39.4375 213.626 48.1033 211.716C55.3979 210.106 61.6503 206.624 67.3872 202.557C67.6125 202.398 67.9246 202.451 68.0843 202.676Z" fill="#41A7D8"/>
<path fill-rule="evenodd" clip-rule="evenodd" d="M144.412 171.578C138.621 170.35 132.775 169.807 126.953 170.318C119.91 170.931 113.937 173.671 108.511 177.229C108.28 177.38 107.97 177.316 107.819 177.085C107.667 176.854 107.732 176.544 107.963 176.392C113.473 172.779 119.605 169.954 126.865 169.321C132.807 168.8 138.754 169.357 144.62 170.6C144.89 170.657 145.062 170.923 145.005 171.193C144.948 171.463 144.682 171.636 144.412 171.578Z" fill="#41A7D8"/>
<path fill-rule="evenodd" clip-rule="evenodd" d="M76.9441 202.634C77.1272 202.841 77.1079 203.157 76.9012 203.34C69.0544 210.287 60.391 217.583 49.043 220.189C40.1737 222.226 30.9538 221.375 21.8089 219.289C14.5696 217.639 7.51571 214.974 0.792104 211.9C0.540964 211.785 0.430452 211.488 0.54527 211.237C0.660087 210.986 0.956755 210.876 1.2079 210.99C7.89254 214.047 14.8793 216.684 22.0311 218.314C31.1011 220.383 40.1546 221.205 48.8191 219.214C59.8895 216.672 68.3806 209.548 76.2383 202.591C76.4451 202.408 76.7611 202.427 76.9441 202.634Z" fill="#41A7D8"/>
<path fill-rule="evenodd" clip-rule="evenodd" d="M144.399 176.776C138.425 175.341 132.394 174.668 126.383 175.188C119.524 175.776 113.738 178.485 108.519 182.054C108.291 182.21 107.98 182.152 107.824 181.924C107.668 181.696 107.727 181.385 107.955 181.229C113.264 177.598 119.213 174.799 126.297 174.191C132.439 173.66 138.58 174.35 144.633 175.804C144.901 175.868 145.067 176.138 145.002 176.407C144.938 176.675 144.668 176.841 144.399 176.776Z" fill="#41A7D8"/>
<path fill-rule="evenodd" clip-rule="evenodd" d="M0.554471 217.816C0.674369 217.567 0.973222 217.462 1.22198 217.582C5.80115 219.789 10.5354 221.81 15.3674 223.456C15.6288 223.545 15.7685 223.829 15.6794 224.09C15.5904 224.352 15.3063 224.492 15.0449 224.403C10.1661 222.74 5.39394 220.703 0.787788 218.483C0.539033 218.363 0.434574 218.064 0.554471 217.816Z" fill="#41A7D8"/>
<path fill-rule="evenodd" clip-rule="evenodd" d="M84.0811 202.599C84.2836 202.787 84.2954 203.103 84.1076 203.305C83.7273 203.715 83.3637 204.084 83.0466 204.381L83.0458 204.382C81.6683 205.667 80.2774 207.012 78.8605 208.383C72.8978 214.151 66.4737 220.366 58.6361 224.374C58.3902 224.5 58.089 224.403 57.9633 224.157C57.8375 223.911 57.9349 223.61 58.1808 223.484C65.8718 219.551 72.1611 213.469 78.118 207.708C79.5473 206.326 80.9576 204.962 82.3634 203.651C82.6592 203.374 83.0058 203.023 83.3745 202.625C83.5623 202.423 83.8787 202.411 84.0811 202.599Z" fill="#41A7D8"/>
<path fill-rule="evenodd" clip-rule="evenodd" d="M90.0924 202.637C90.2736 202.845 90.2517 203.161 90.0433 203.343C89.5542 203.768 89.0592 204.19 88.5634 204.597C88.0351 205.031 87.0951 206.134 86.0587 207.377C85.94 207.519 85.8203 207.663 85.7003 207.807C84.7977 208.892 83.8751 210 83.1977 210.691C81.9637 211.949 80.7161 213.262 79.4453 214.599C76.3677 217.838 73.1547 221.219 69.6719 224.308C69.4653 224.491 69.1492 224.472 68.966 224.266C68.7828 224.059 68.8017 223.743 69.0083 223.56C72.4576 220.501 75.6225 217.17 78.6881 213.944C79.9662 212.599 81.2269 211.272 82.4838 209.991C83.1301 209.332 84.0228 208.259 84.9326 207.167C85.0519 207.023 85.1714 206.88 85.2907 206.737C86.2952 205.532 87.3085 204.334 87.9284 203.825C88.4153 203.424 88.9031 203.009 89.387 202.588C89.5953 202.407 89.9111 202.429 90.0924 202.637Z" fill="#41A7D8"/>
<path fill-rule="evenodd" clip-rule="evenodd" d="M144.386 182.017C138.233 180.36 132.007 179.538 125.813 180.067C119.141 180.627 113.542 183.281 108.526 186.837C108.301 186.996 107.989 186.943 107.829 186.718C107.669 186.493 107.722 186.181 107.948 186.021C113.061 182.396 118.827 179.65 125.728 179.071C132.067 178.53 138.412 179.372 144.646 181.052C144.913 181.124 145.071 181.398 144.999 181.665C144.927 181.931 144.652 182.089 144.386 182.017Z" fill="#41A7D8"/>
<path fill-rule="evenodd" clip-rule="evenodd" d="M95.8652 202.604C96.0646 202.795 96.0713 203.112 95.8802 203.311C95.8252 203.369 95.7703 203.426 95.7154 203.483C93.3096 205.994 90.9551 208.451 88.5603 210.596C88.0725 211.035 87.1535 212.199 86.1388 213.511C86.024 213.659 85.9082 213.809 85.7921 213.959C84.9067 215.105 84.0029 216.275 83.3584 216.99C82.3199 218.148 81.2724 219.344 80.2068 220.563L80.1189 220.663C79.0821 221.848 78.0282 223.053 76.9522 224.257C76.7681 224.463 76.4521 224.481 76.2462 224.297C76.0403 224.113 76.0225 223.797 76.2065 223.591C77.279 222.391 78.3299 221.19 79.3676 220.003L79.4541 219.904C80.5193 218.686 81.571 217.485 82.6145 216.322L82.6153 216.321C83.2322 215.637 84.1095 214.501 85.002 213.346C85.1173 213.197 85.2328 213.047 85.348 212.899C86.3314 211.628 87.3193 210.367 87.8921 209.852C90.2582 207.732 92.5905 205.299 95.0063 202.778L95.1582 202.619C95.3493 202.42 95.6658 202.413 95.8652 202.604Z" fill="#41A7D8"/>
<path fill-rule="evenodd" clip-rule="evenodd" d="M144.373 187.268C138.042 185.373 131.626 184.404 125.243 184.937C118.767 185.477 113.355 188.062 108.531 191.581C108.308 191.744 107.996 191.695 107.833 191.472C107.67 191.249 107.719 190.936 107.942 190.773C112.868 187.179 118.451 184.5 125.16 183.941C131.699 183.394 138.243 184.39 144.659 186.31C144.924 186.389 145.074 186.668 144.995 186.932C144.916 187.197 144.637 187.347 144.373 187.268Z" fill="#41A7D8"/>
<path fill-rule="evenodd" clip-rule="evenodd" d="M176.398 202.682C176.555 202.454 176.866 202.397 177.094 202.553C178.795 203.724 180.458 204.909 182.058 206.089C182.059 206.089 182.059 206.09 182.06 206.09L181.763 206.493L182.057 206.088C182.057 206.088 182.058 206.089 182.058 206.089C182.272 206.244 182.485 206.403 182.695 206.559C182.833 206.662 182.97 206.764 183.105 206.863C183.328 207.027 183.375 207.34 183.212 207.562C183.048 207.785 182.735 207.832 182.513 207.669C182.367 207.562 182.227 207.458 182.089 207.354C181.884 207.202 181.681 207.051 181.469 206.897L181.466 206.895C179.875 205.721 178.22 204.542 176.527 203.377C176.299 203.221 176.242 202.91 176.398 202.682Z" fill="#41A7D8"/>
<path fill-rule="evenodd" clip-rule="evenodd" d="M166.718 202.698C166.862 202.463 167.17 202.39 167.405 202.534C172.352 205.577 177.022 208.91 181.302 212.161C181.915 212.628 182.52 213.092 183.12 213.555C183.338 213.724 183.378 214.038 183.21 214.256C183.041 214.475 182.727 214.515 182.508 214.346C181.911 213.885 181.309 213.423 180.696 212.957C176.433 209.718 171.791 206.406 166.882 203.386C166.646 203.241 166.573 202.933 166.718 202.698Z" fill="#41A7D8"/>
<path fill-rule="evenodd" clip-rule="evenodd" d="M100.74 202.604C100.94 202.796 100.946 203.112 100.755 203.311C98.8303 205.319 96.9895 207.395 95.181 209.435C94.9679 209.675 94.7551 209.915 94.5428 210.155C92.5323 212.42 90.5544 214.624 88.5538 216.598C88.105 217.042 87.2056 218.269 86.2133 219.648C86.093 219.815 85.9716 219.984 85.85 220.153C84.9904 221.35 84.1183 222.564 83.5142 223.298L83.5131 223.299C83.2569 223.609 83.0007 223.923 82.7444 224.242C82.5715 224.457 82.2567 224.492 82.0414 224.319C81.8261 224.146 81.7917 223.831 81.9646 223.616C82.2239 223.293 82.4832 222.975 82.7426 222.662C82.7423 222.662 82.7421 222.662 82.7419 222.663L83.128 222.98L82.7426 222.662C82.7427 222.662 82.7425 222.662 82.7426 222.662C83.324 221.955 84.1733 220.773 85.0376 219.57C85.1589 219.401 85.2805 219.232 85.4017 219.064C86.3649 217.726 87.3263 216.406 87.8506 215.887C89.8247 213.939 91.7832 211.757 93.7948 209.491C94.007 209.252 94.2197 209.012 94.4331 208.771C96.2399 206.733 98.0941 204.642 100.033 202.619C100.225 202.42 100.541 202.413 100.74 202.604Z" fill="#41A7D8"/>
<path fill-rule="evenodd" clip-rule="evenodd" d="M144.359 192.557C137.85 190.412 131.244 189.27 124.673 189.812C118.407 190.323 113.167 192.82 108.536 196.278C108.315 196.443 108.001 196.397 107.836 196.176C107.671 195.955 107.716 195.642 107.938 195.476C112.677 191.938 118.092 189.346 124.591 188.816C131.332 188.259 138.075 189.433 144.672 191.607C144.935 191.694 145.077 191.977 144.991 192.239C144.904 192.501 144.622 192.644 144.359 192.557Z" fill="#41A7D8"/>
<path fill-rule="evenodd" clip-rule="evenodd" d="M144.346 197.87C137.663 195.453 130.862 194.135 124.103 194.682C118.047 195.169 112.992 197.573 108.539 200.946C108.319 201.113 108.005 201.069 107.838 200.849C107.672 200.629 107.715 200.315 107.935 200.149C112.501 196.691 117.732 194.191 124.023 193.685M124.023 193.685C130.964 193.123 137.912 194.48 144.686 196.929C144.946 197.023 145.08 197.31 144.986 197.569C144.892 197.829 144.606 197.964 144.346 197.87" fill="#41A7D8"/>
<path fill-rule="evenodd" clip-rule="evenodd" d="M156.326 202.729C156.456 202.486 156.759 202.394 157.002 202.525C158.917 203.55 160.811 204.629 162.675 205.737C169.119 209.567 175.151 214.009 180.544 218.242C181.427 218.935 182.284 219.617 183.131 220.293C183.347 220.466 183.382 220.78 183.21 220.996C183.037 221.212 182.723 221.247 182.507 221.075C181.661 220.399 180.806 219.719 179.927 219.029C174.549 214.807 168.555 210.395 162.164 206.596C160.311 205.495 158.43 204.424 156.53 203.406C156.287 203.276 156.195 202.973 156.326 202.729Z" fill="#41A7D8"/>
<path fill-rule="evenodd" clip-rule="evenodd" d="M105.68 202.632C105.865 202.838 105.847 203.154 105.641 203.338C102.401 206.239 99.4763 209.584 96.6847 212.945C95.9487 213.831 95.221 214.719 94.4989 215.6C92.491 218.05 90.5271 220.447 88.5506 222.594L88.548 222.597C88.3013 222.861 87.8814 223.444 87.3484 224.214C87.1912 224.441 86.8797 224.497 86.6526 224.34C86.4256 224.183 86.369 223.872 86.5262 223.644C87.0431 222.898 87.5081 222.246 87.816 221.916C89.771 219.792 91.7073 217.429 93.7087 214.986C94.4344 214.101 95.1687 213.204 95.9156 212.305C98.714 208.937 101.677 205.545 104.974 202.593C105.18 202.409 105.496 202.426 105.68 202.632Z" fill="#41A7D8"/>
<path fill-rule="evenodd" clip-rule="evenodd" d="M144.578 202.778C144.681 202.522 144.972 202.398 145.228 202.502C151.006 204.832 156.658 207.963 162.063 211.367C168.071 215.148 173.712 219.443 178.807 223.539C179.022 223.712 179.056 224.027 178.883 224.242C178.71 224.458 178.396 224.492 178.18 224.319C173.098 220.232 167.491 215.965 161.53 212.214C156.154 208.827 150.558 205.73 144.854 203.429C144.598 203.326 144.474 203.034 144.578 202.778Z" fill="#41A7D8"/>
<path fill-rule="evenodd" clip-rule="evenodd" d="M123.454 198.555C130.602 197.988 137.75 199.548 144.699 202.286C144.956 202.387 145.082 202.678 144.981 202.934C144.88 203.191 144.589 203.318 144.333 203.216C137.475 200.515 130.484 199 123.533 199.552C116.175 200.134 110.327 203.62 105.293 208.312C100.958 212.352 97.2548 217.256 93.7166 221.943C93.1359 222.712 92.5597 223.475 91.9858 224.227C91.8184 224.447 91.5047 224.489 91.2851 224.322C91.0655 224.154 91.0232 223.841 91.1907 223.621C91.759 222.876 92.3316 222.117 92.9103 221.351C96.4449 216.668 100.207 211.685 104.611 207.58C109.749 202.792 115.799 199.161 123.454 198.555Z" fill="#41A7D8"/>
<path fill-rule="evenodd" clip-rule="evenodd" d="M160.902 217.826C148.947 209.88 135.881 203.42 122.964 204.432C110.688 205.39 102.707 214.649 95.8629 224.22C95.7022 224.445 95.3899 224.496 95.1653 224.336C94.9407 224.175 94.8888 223.863 95.0495 223.638C101.886 214.079 110.106 204.433 122.886 203.435C136.162 202.394 149.475 209.03 161.456 216.993C164.586 219.074 167.617 221.29 170.519 223.534C170.738 223.702 170.778 224.016 170.609 224.235C170.44 224.453 170.126 224.494 169.908 224.325C167.02 222.092 164.009 219.891 160.902 217.826Z" fill="#41A7D8"/>
<path fill-rule="evenodd" clip-rule="evenodd" d="M160.274 223.443C148.381 215.108 135.313 208.309 122.399 209.307C112.394 210.074 105.275 216.494 99.4009 224.231C99.234 224.451 98.9203 224.494 98.7004 224.327C98.4804 224.16 98.4375 223.847 98.6044 223.627C104.534 215.816 111.883 209.11 122.322 208.31C135.61 207.283 148.931 214.273 160.848 222.624C161.089 222.793 161.338 222.973 161.583 223.15C161.759 223.277 161.933 223.402 162.101 223.521C162.326 223.681 162.379 223.993 162.219 224.218C162.059 224.444 161.747 224.497 161.522 224.337C161.336 224.205 161.158 224.077 160.983 223.95C160.748 223.78 160.516 223.612 160.275 223.444L160.274 223.443Z" fill="#41A7D8"/>
<path fill-rule="evenodd" clip-rule="evenodd" d="M152.865 224.349C142.908 217.918 132.305 213.382 121.829 214.177C114.108 214.762 108.122 218.791 103.153 224.265C102.967 224.47 102.651 224.485 102.447 224.299C102.242 224.114 102.227 223.798 102.413 223.593C107.485 218.004 113.691 213.791 121.753 213.18C132.557 212.36 143.389 217.038 153.408 223.509C153.64 223.659 153.707 223.968 153.557 224.2C153.407 224.432 153.097 224.499 152.865 224.349Z" fill="#41A7D8"/>
<path fill-rule="evenodd" clip-rule="evenodd" d="M121.18 218.05C129.147 217.456 137.12 219.975 144.751 224.033C144.995 224.162 145.087 224.465 144.957 224.709C144.828 224.953 144.525 225.045 144.281 224.915C136.742 220.907 128.963 218.473 121.254 219.047C116.093 219.428 111.713 221.393 107.909 224.32C107.691 224.489 107.377 224.448 107.208 224.229C107.04 224.01 107.081 223.696 107.299 223.528C111.232 220.501 115.794 218.447 121.18 218.05Z" fill="#41A7D8"/>
<path fill-rule="evenodd" clip-rule="evenodd" d="M120.611 222.929C128.786 222.331 136.968 225.133 144.763 229.566C145.003 229.703 145.087 230.008 144.95 230.248C144.814 230.488 144.509 230.572 144.269 230.435C136.563 226.053 128.584 223.348 120.684 223.927C116.043 224.265 112.037 225.91 108.521 228.404C108.296 228.564 107.984 228.511 107.824 228.286C107.664 228.06 107.717 227.748 107.943 227.589C111.588 225.003 115.765 223.282 120.611 222.929Z" fill="#41A7D8"/>
<path fill-rule="evenodd" clip-rule="evenodd" d="M85.6842 273.825C85.9345 273.942 86.0428 274.239 85.9261 274.489C85.0554 276.357 84.0972 278.42 83.5965 279.504L83.5955 279.506C83.3207 280.094 83.0432 280.69 82.7631 281.292C82.4055 282.06 82.0437 282.838 81.6785 283.617C81.5613 283.867 81.2636 283.975 81.0136 283.858C80.7635 283.741 80.6558 283.443 80.7729 283.193C81.1386 282.412 81.4986 281.639 81.8552 280.873C82.1349 280.272 82.4125 279.675 82.6891 279.083C83.1907 277.997 84.1491 275.935 85.0198 274.067C85.1364 273.817 85.4339 273.708 85.6842 273.825Z" fill="#41A7D8"/>
<path fill-rule="evenodd" clip-rule="evenodd" d="M121.017 235.339C129.073 234.929 137.099 237.709 144.759 241.975C145 242.109 145.087 242.413 144.953 242.655C144.818 242.896 144.514 242.983 144.273 242.848C136.696 238.629 128.862 235.941 121.067 236.338L121.066 236.338C120.673 236.357 120.273 236.39 119.868 236.429C115.632 236.829 111.832 238.357 108.515 240.579C108.286 240.733 107.975 240.672 107.821 240.442C107.668 240.213 107.729 239.902 107.958 239.748C111.394 237.446 115.35 235.851 119.773 235.433C120.185 235.394 120.602 235.359 121.017 235.339Z" fill="#41A7D8"/>
<path fill-rule="evenodd" clip-rule="evenodd" d="M120.154 247.819C128.515 247.216 136.816 250.006 144.754 254.295C144.997 254.426 145.087 254.73 144.956 254.973C144.825 255.216 144.521 255.306 144.278 255.175C136.424 250.931 128.32 248.233 120.227 248.817C119.84 248.845 119.444 248.884 119.049 248.931L119.046 248.931C115.196 249.379 111.628 250.798 108.505 252.783C108.272 252.931 107.963 252.862 107.815 252.629C107.667 252.396 107.736 252.087 107.969 251.939C111.199 249.886 114.909 248.406 118.93 247.938C119.341 247.889 119.753 247.849 120.154 247.819Z" fill="#41A7D8"/>
<path fill-rule="evenodd" clip-rule="evenodd" d="M91.406 273.239C91.6495 273.369 91.7412 273.672 91.6108 273.916C90.766 275.494 89.9501 277.064 89.1527 278.6C89.1144 278.674 89.0761 278.748 89.0378 278.821C88.2809 280.28 87.5402 281.707 86.8093 283.076C86.8092 283.076 86.8093 283.076 86.8093 283.076C86.4776 283.698 85.4643 285.775 84.4699 287.814C84.1969 288.373 83.9253 288.93 83.6696 289.453C83.5483 289.701 83.2489 289.804 83.0008 289.683C82.7528 289.561 82.65 289.262 82.7713 289.014C83.0227 288.5 83.2909 287.95 83.5615 287.395C84.5578 285.353 85.586 283.245 85.927 282.605C86.6551 281.242 87.3935 279.819 88.1511 278.359C88.1891 278.286 88.2271 278.213 88.2651 278.139C89.0623 276.603 89.881 275.028 90.7292 273.444C90.8596 273.2 91.1626 273.109 91.406 273.239Z" fill="#41A7D8"/>
<path fill-rule="evenodd" clip-rule="evenodd" d="M99.3903 272.469C99.605 272.642 99.6382 272.957 99.4645 273.172C95.4787 278.099 92.2393 283.951 89.22 289.473C89.0875 289.716 88.7837 289.805 88.5414 289.672C88.2991 289.54 88.2101 289.236 88.3425 288.994C91.356 283.482 94.6358 277.551 98.6871 272.543C98.8608 272.328 99.1756 272.295 99.3903 272.469Z" fill="#41A7D8"/>
<path fill-rule="evenodd" clip-rule="evenodd" d="M119.298 260.294C127.953 259.484 136.528 262.259 144.746 266.527C144.991 266.654 145.087 266.956 144.96 267.201C144.832 267.446 144.53 267.542 144.285 267.414C136.147 263.188 127.773 260.505 119.39 261.29L119.388 261.29C119.018 261.323 118.635 261.375 118.227 261.433L118.226 261.433C114.747 261.919 111.429 263.224 108.49 265C108.254 265.143 107.947 265.067 107.804 264.831C107.661 264.594 107.737 264.287 107.973 264.144C111.008 262.31 114.453 260.95 118.087 260.443C118.495 260.384 118.9 260.329 119.298 260.294Z" fill="#41A7D8"/>
<path fill-rule="evenodd" clip-rule="evenodd" d="M154.485 272.879C154.638 272.648 154.948 272.585 155.178 272.737C159.501 275.591 163.701 278.638 167.721 281.555C167.878 281.669 168.035 281.783 168.191 281.896C168.415 282.058 168.464 282.371 168.302 282.594C168.14 282.818 167.827 282.868 167.604 282.705C167.449 282.593 167.295 282.481 167.14 282.369C163.115 279.449 158.931 276.413 154.627 273.572C154.397 273.419 154.333 273.109 154.485 272.879Z" fill="#41A7D8"/>
<path fill-rule="evenodd" clip-rule="evenodd" d="M140.775 276.821C148.049 279.938 155.128 284.383 161.848 288.816C162.079 288.968 162.143 289.278 161.99 289.509C161.838 289.739 161.528 289.803 161.298 289.651C154.581 285.22 147.566 280.819 140.381 277.74C133.199 274.662 125.879 272.92 118.55 273.772C118.23 273.81 117.899 273.862 117.544 273.918C117.498 273.925 117.451 273.932 117.404 273.94C112.491 274.74 107.731 277.27 104.131 280.285C101.082 282.859 98.4255 286.057 96.0175 289.519C95.8599 289.745 95.5483 289.801 95.3216 289.644C95.0949 289.486 95.0389 289.174 95.1966 288.948C97.634 285.443 100.348 282.17 103.487 279.52L103.489 279.519C107.196 276.414 112.117 273.787 117.245 272.952L117.248 272.952C117.295 272.945 117.342 272.937 117.389 272.93C117.741 272.874 118.093 272.819 118.434 272.779C125.998 271.899 133.5 273.704 140.775 276.821Z" fill="#41A7D8"/>
<path fill-rule="evenodd" clip-rule="evenodd" d="M117.577 285.26C125.258 284.188 132.885 285.826 140.302 288.769C140.559 288.87 140.684 289.161 140.583 289.418C140.481 289.674 140.19 289.8 139.933 289.698C132.61 286.793 125.166 285.211 117.717 286.25C117.362 286.302 116.987 286.368 116.594 286.445L116.589 286.446C113.688 286.983 110.778 288.161 108.145 289.672C107.906 289.809 107.6 289.727 107.463 289.487C107.325 289.248 107.408 288.942 107.647 288.805C110.355 287.251 113.371 286.025 116.404 285.463C116.808 285.384 117.199 285.315 117.573 285.26L117.577 285.26Z" fill="#41A7D8"/>
<path fill-rule="evenodd" clip-rule="evenodd" d="M143.284 45.0807C143.376 44.9345 143.536 44.8457 143.708 44.8457H144.181C144.457 44.8457 144.681 45.0696 144.681 45.3457C144.681 45.6218 144.457 45.8457 144.181 45.8457H143.957C143.795 45.9813 143.559 46.0044 143.37 45.8866C143.136 45.7403 143.065 45.4318 143.211 45.1976L143.284 45.0807Z" fill="#41A7D8"/>
</svg>
