<svg width="155" height="270" viewBox="0 0 155 270" fill="none" xmlns="http://www.w3.org/2000/svg">
<path fill-rule="evenodd" clip-rule="evenodd" d="M70.9531 1.3492C65.1266 6.40366 59.4772 12.0635 54.0545 18.3688L53.3533 17.7658C58.8048 11.4271 64.4859 5.73521 70.3471 0.650635L70.9531 1.3492ZM80.1784 1.49571C73.9376 6.2916 67.8734 11.7525 62.0255 17.8989L61.3555 17.2614C67.235 11.0819 73.3346 5.58868 79.6149 0.762429L80.1784 1.49571ZM61.4294 2.20438C55.5626 7.97309 49.9225 14.3969 44.5685 21.5259L43.829 20.9705C49.2102 13.8054 54.8807 7.34668 60.781 1.54497L61.4294 2.20438ZM68.6323 18.0328C75.0698 11.8224 81.7373 6.40841 88.5654 1.74146L89.0872 2.50495C82.3028 7.14206 75.6754 12.5231 69.2743 18.6983L68.6323 18.0328ZM75.3018 19.781C82.3369 13.4704 89.6123 8.07565 97.0586 3.53769L97.5398 4.32738C90.1433 8.83503 82.9133 14.1956 75.9193 20.4694L75.3018 19.781ZM20.6946 49.8441C29.4427 31.648 39.6851 16.2936 50.9571 3.61505L51.6482 4.22951C40.4379 16.8388 30.2418 32.12 21.5279 50.2453C16.6047 60.4588 11.1628 69.4301 5.36093 77.3166L4.61601 76.7686C10.3828 68.9296 15.7953 60.0081 20.6946 49.8441ZM81.2061 22.4254C88.9081 15.9352 96.8707 10.4903 104.985 6.04173L105.429 6.85264C97.3707 11.2708 89.4586 16.6806 81.802 23.1326L81.2061 22.4254ZM18.2522 44.729C24.9428 30.5061 32.5796 18.0123 40.9252 7.1496L41.6586 7.71302C33.3557 18.52 25.7529 30.9563 19.089 45.1227C14.3846 55.0972 9.17127 63.8993 3.59796 71.6468L2.84724 71.1068C8.38608 63.4072 13.5708 54.6546 18.2522 44.729ZM86.4032 25.8385C94.7724 19.0986 103.422 13.5734 112.224 9.20415L112.635 10.0325C103.896 14.3709 95.3021 19.8594 86.9832 26.5588L86.4032 25.8385ZM15.8097 39.6033C20.3232 29.7924 25.3048 20.7864 30.6755 12.5659L31.4497 13.0717C26.105 21.2525 21.1451 30.2184 16.6498 39.9898C12.4522 49.1082 7.81601 57.2123 2.87022 64.4604L2.10632 63.9392C7.02261 56.7343 11.6334 48.6754 15.8097 39.6033ZM119.16 13.7467C109.718 18.0454 100.413 23.6428 91.3917 30.6393L90.8249 29.9085C99.9009 22.8695 109.268 17.2344 118.777 12.905L119.16 13.7467ZM124.972 17.9169C114.849 22.1757 104.841 27.9213 95.148 35.2645L94.5895 34.5274C104.342 27.1392 114.417 21.3542 124.613 17.0644L124.972 17.9169ZM20.7748 21.4659C18.4878 25.751 16.2898 30.2148 14.2006 34.8573C10.9079 42.2025 7.30638 48.8808 3.4956 54.9915L2.71089 54.5021C6.49997 48.4262 10.0817 41.7848 13.357 34.4784C15.4547 29.8168 17.6622 25.3338 19.959 21.0305L20.7748 21.4659ZM130.072 22.4735C119.287 26.732 108.617 32.6657 98.2707 40.3957L97.7172 39.6548C108.127 31.878 118.868 25.9033 129.732 21.6133L130.072 22.4735ZM100.267 45.2209C111.293 37.0057 122.662 30.8014 134.144 26.4812L134.47 27.3468C123.073 31.6348 111.78 37.7962 100.82 45.9624L100.267 45.2209ZM138.216 32.4776C126.226 36.8448 114.34 43.2736 102.795 51.9258L102.241 51.1858C113.854 42.4824 125.819 36.0087 137.899 31.6087L138.216 32.4776ZM23.1368 54.9699C26.4769 48.1775 30.0162 41.7927 33.725 35.7958L34.5115 36.2822C30.8188 42.2533 27.2939 48.6118 23.9667 55.378C19.0933 65.2923 13.7414 74.0335 8.04939 81.7599L7.30483 81.2114C12.9632 73.5306 18.2869 64.8365 23.1368 54.9699ZM141.602 38.3648C128.914 42.7603 116.41 49.5728 104.415 59.2223L103.836 58.5017C115.911 48.7877 128.508 41.9224 141.299 37.491L141.602 38.3648ZM25.5793 60.0957C29.1779 52.915 32.9955 46.2015 37.0026 39.9157L37.7824 40.4128C33.7927 46.6714 29.9906 53.3573 26.4059 60.5103C21.821 69.6475 16.8371 77.7706 11.5635 85.0279L10.8154 84.4843C16.0587 77.2686 21.0164 69.1889 25.5793 60.0957ZM144.286 44.4893C130.863 48.992 117.741 56.3658 105.345 67.3392L104.732 66.6468C117.219 55.5927 130.449 48.1554 143.992 43.6126L144.286 44.4893ZM28.0217 65.2216C31.8289 57.7822 35.8651 50.8398 40.0908 44.3649L40.8653 44.8703C36.6576 51.3176 32.6376 58.2319 28.8448 65.6431C24.7872 73.5643 20.4303 80.74 15.8536 87.2391L15.0975 86.7067C19.6487 80.2438 23.9833 73.1053 28.0217 65.2216ZM30.4643 70.3376C34.361 62.8582 38.4867 55.8961 42.7916 49.4017L43.5624 49.9126C39.2753 56.3802 35.1661 63.3144 31.2843 70.7651C27.9725 77.1022 24.4712 82.9521 20.8307 88.3833L20.0625 87.8684C23.6845 82.4647 27.1683 76.6444 30.4643 70.3376ZM105.586 75.2229C118.267 62.6884 131.93 54.6687 146.047 49.9643L146.339 50.8417C132.358 55.5009 118.817 63.4449 106.237 75.8797C106.237 75.88 106.237 75.8803 106.236 75.8806L105.405 76.7134L104.751 76.0601L105.584 75.2251L105.586 75.2229ZM32.9062 75.4536C36.6735 68.3629 40.64 61.7297 44.766 55.5242L45.5361 56.0362C41.4271 62.2162 37.4761 68.8234 33.7229 75.8875C31.3556 80.3419 28.889 84.547 26.353 88.5425L25.5722 88.0469C28.0962 84.0703 30.5508 79.8858 32.9062 75.4536ZM109.777 80.7464C121.495 68.6762 134.218 61.0224 147.443 56.5158L147.741 57.3912C134.654 61.8507 122.057 69.4254 110.44 81.3906C108.3 83.5944 106.179 85.8385 104.067 88.1035L103.391 87.4728C105.505 85.205 107.631 82.9561 109.777 80.7464ZM113.957 86.2895C124.564 74.9139 136.135 67.6562 148.229 63.2973L148.543 64.1673C136.587 68.4763 125.14 75.6518 114.633 86.92C109.627 92.2938 104.729 97.7375 99.8895 103.261L99.1939 102.652C104.038 97.1219 108.943 91.671 113.957 86.2895ZM35.3491 80.5792C38.6096 74.554 42.0191 68.8676 45.5279 63.4899L46.3024 63.9953C42.8067 69.3528 39.4101 75.0178 36.1621 81.0201C34.9484 83.2526 33.7149 85.4053 32.4627 87.5261L31.6664 87.0559C32.9144 84.9421 34.1419 82.7999 35.3491 80.5792ZM118.138 91.8236C127.492 81.3832 137.711 74.5719 148.454 70.3306L148.794 71.1908C138.186 75.3787 128.086 82.106 118.827 92.4406C107.5 105.09 96.679 117.67 85.9762 130.45L85.2672 129.857C95.9752 117.07 106.803 104.482 118.138 91.8236ZM122.329 97.3568C130.289 88.1229 138.955 81.8387 148.096 77.7147L148.477 78.5576C139.462 82.6243 130.904 88.8251 123.029 97.9605C118.05 103.742 113.165 109.431 108.336 115.056C98.1485 126.923 88.2092 138.5 78.1519 150.039C70.7267 158.555 62.8619 165.608 54.5779 171.533L54.0399 170.781C62.2655 164.897 70.0769 157.894 77.4548 149.432C87.5096 137.895 97.445 126.322 107.632 114.457C112.461 108.832 117.347 103.141 122.329 97.3568ZM126.51 102.9C132.866 95.2332 139.737 89.6776 146.995 85.7414L147.436 86.5543C140.287 90.4312 133.507 95.9092 127.222 103.49C111.731 122.182 97.1209 139.196 82.0524 155.516C70.6128 167.905 58.1463 176.913 44.7571 183.775L44.3353 182.952C57.6353 176.136 70.0126 167.192 81.3729 154.889C96.4264 138.585 111.025 121.584 126.51 102.9ZM130.701 108.434C135.093 102.925 139.768 98.5502 144.667 95.0942L145.2 95.8499C140.376 99.2527 135.764 103.566 131.425 109.011C115.94 128.423 101.275 145.344 85.9621 160.974C71.761 175.491 56.0267 184.927 38.8417 191.677L38.5036 190.816C55.5879 184.106 71.2058 174.736 85.3012 160.327C100.587 144.725 115.231 127.829 130.701 108.434ZM134.884 113.966C135.983 112.544 137.092 111.234 138.218 109.966L138.909 110.58C137.793 111.836 136.7 113.13 135.616 114.531M67.8815 183.283C57.3851 189.588 46.2368 194.204 34.4129 197.841L34.141 196.957C45.9107 193.337 56.9869 188.749 67.4053 182.49L67.8815 183.283ZM138.123 197.316C140.694 195.107 143.246 192.749 145.777 190.223L146.431 190.877C143.883 193.42 141.314 195.794 138.726 198.018L138.123 197.316ZM128.356 213.568C137.112 208.053 145.538 201.158 154.001 192.64L154.657 193.291C146.154 201.851 137.673 208.792 128.848 214.35L128.356 213.568ZM56.6154 194.856C48.3943 198.176 39.7997 200.777 30.815 202.968L30.596 202.069C39.5496 199.886 48.0996 197.298 56.2691 193.998L56.6154 194.856ZM50.0936 202.127C42.9222 204.239 35.4758 205.952 27.7468 207.445L27.5714 206.537C35.2804 205.048 42.6967 203.342 49.8323 201.24L50.0936 202.127ZM107.027 231.615C123.228 226.393 137.223 217.745 151.325 205.342L151.936 206.036C137.761 218.503 123.658 227.226 107.311 232.496C90.9667 237.764 72.4072 239.572 49.3316 238.248C30.4016 237.158 15.3504 239.913 3.38638 244.765L3.03883 243.908C15.1447 238.999 30.3347 236.228 49.3846 237.324C72.3851 238.644 90.8233 236.839 107.027 231.615ZM45.32 207.751C38.789 209.185 32.032 210.38 25.0404 211.444L24.9011 210.53C31.8792 209.467 38.6156 208.276 45.1216 206.848L45.32 207.751ZM41.505 212.467C35.4045 213.463 29.1074 214.308 22.6051 215.094L22.4942 214.176C28.9892 213.391 35.2727 212.547 41.356 211.555L41.505 212.467ZM21.0719 218.405C26.9852 217.858 32.7217 217.272 38.2906 216.605L38.1808 215.687C32.62 216.352 26.8896 216.938 20.9791 217.485L20.9716 217.486L20.8945 217.495C20.68 217.522 20.4832 217.547 20.2787 217.564L20.3557 218.486C20.5802 218.467 20.7962 218.44 21.0077 218.413L21.0719 218.405ZM109.507 238.349C124.072 234.068 136.518 226.846 148.872 217.007L149.448 217.731C137.027 227.623 124.475 234.914 109.767 239.236C95.0609 243.558 78.2247 244.905 57.2425 242.948C32.9729 240.679 14.7984 244.942 1.22469 252.062L0.795089 251.243C14.5456 244.03 32.9026 239.744 57.3284 242.027C78.2253 243.977 94.9392 242.63 109.507 238.349ZM23.2797 220.357C27.4256 220.049 31.4817 219.731 35.4482 219.393L35.5267 220.315C31.5559 220.653 27.4963 220.971 23.3479 221.279C21.5994 221.408 19.9086 221.576 18.2256 221.765L18.1227 220.846C19.8131 220.656 21.5159 220.487 23.2797 220.357ZM23.2797 220.357C23.2798 220.357 23.2795 220.357 23.2797 220.357ZM25.5703 223.219C28.0903 223.08 30.5696 222.941 33.0189 222.792L33.0751 223.715C30.623 223.864 28.1416 224.004 25.6213 224.143C22.3194 224.321 19.1649 224.618 16.1193 225.005L16.0029 224.087C19.0689 223.698 22.2448 223.399 25.5703 223.219ZM41.4502 232.622C68.4962 233.188 89.9682 230.724 108.968 223.339L109.303 224.201C90.1448 231.647 68.5371 234.114 41.4308 233.546C28.5829 233.279 17.6051 234.716 8.20732 237.317L7.96063 236.426C17.4536 233.798 28.5217 232.353 41.4502 232.622ZM33.5055 227.92C50.2634 227.642 65.1881 226.738 78.8258 224.378L78.9835 225.29C65.2772 227.661 50.2981 228.566 33.5209 228.845C25.7764 228.974 18.7284 229.697 12.3169 230.905L12.1457 229.996C18.6125 228.778 25.7128 228.05 33.5055 227.92ZM111.879 245.086C124.864 241.804 135.866 235.99 146.506 228.238L147.051 228.985C136.339 236.789 125.231 242.665 112.105 245.983C98.9814 249.3 83.8651 250.055 65.1438 247.648C36.426 243.963 15.8677 249.712 1.24271 258.736L0.75708 257.949C15.5795 248.803 36.3547 243.021 65.2617 246.731C83.8953 249.126 98.8913 248.369 111.879 245.086ZM73.1947 251.435C105.554 256.706 126.083 250.989 144.195 239.217L144.699 239.993C126.379 251.899 105.614 257.653 73.0461 252.348C40.2861 247.008 17.6389 254.332 2.23637 265.044L1.70834 264.285C17.3209 253.427 40.2139 246.059 73.1947 251.435ZM81.1369 256.139C108.374 261.49 126.627 258.065 141.995 249.755L142.435 250.569C126.847 258.998 108.37 262.432 80.9586 257.047C50.7473 251.102 28.7248 256.239 12.9332 265.068L12.4819 264.261C28.4792 255.317 50.7271 250.156 81.1369 256.139ZM24.7808 264.249C40.7625 257.498 61.807 254.582 89.0687 260.844C111.156 265.918 126.971 264.59 139.99 259.414L140.332 260.273C127.098 265.534 111.085 266.851 88.8617 261.745C61.7727 255.523 40.9281 258.432 25.1407 265.1L24.7808 264.249ZM40.2101 264.228C54.128 260.509 71.0704 259.685 91.4569 264.223L91.256 265.126C71.0035 260.618 54.2123 261.444 40.4488 265.121L40.2101 264.228ZM135.039 268.434C136.144 268.236 137.217 268.019 138.28 267.772L138.489 268.673C137.409 268.924 136.32 269.144 135.202 269.344L135.039 268.434Z" fill="#41A7D8"/>
</svg>
