<svg width="126" height="261" viewBox="0 0 126 261" fill="none" xmlns="http://www.w3.org/2000/svg">
<path fill-rule="evenodd" clip-rule="evenodd" d="M86.1653 4.49575C83.0913 3.34693 79.9871 2.33656 76.8426 1.44488L77.0949 0.555176C80.2622 1.45332 83.3903 2.47141 86.489 3.62948L86.1653 4.49575ZM86.1642 9.33173C80.123 7.22159 73.9542 5.5873 67.6874 4.46816L67.85 3.55778C74.1669 4.68586 80.3832 6.3329 86.4692 8.45867L86.1642 9.33173ZM86.1835 14.1971C75.8723 10.8293 65.1863 8.87818 54.3526 8.43249L54.3906 7.50849C65.3104 7.95771 76.0802 9.92432 86.4706 13.318L86.1835 14.1971ZM86.1824 19.1118C59.2165 10.9012 29.8393 12.3064 1.91855 25.2044L1.53072 24.3649C29.6609 11.3702 59.2721 9.95142 86.4518 18.2271L86.1824 19.1118ZM86.1915 24.0566C59.1375 16.4207 29.7901 18.4197 1.92748 32.0216L1.52179 31.1906C29.5911 17.4878 59.1725 15.4697 86.4427 23.1666L86.1915 24.0566ZM86.2006 29.0406C62.9423 22.9893 38.0831 24.0582 13.9408 33.4983L13.604 32.637C37.9306 23.1249 62.9893 22.046 86.4335 28.1456L86.2006 29.0406ZM86.2099 34.0643C69.0402 29.9739 51.051 29.7659 33.1298 33.9356L32.9202 33.0349C50.9835 28.8321 69.1178 29.0418 86.4242 33.1647L86.2099 34.0643ZM86.2195 39.1277C71.5015 35.9486 56.2108 35.6217 40.8896 38.4543L40.7215 37.5449C56.1648 34.6898 71.579 35.0192 86.4148 38.2238L86.2195 39.1277ZM86.2387 44.2307C72.2723 41.5172 57.822 41.3785 43.3312 44.0723L43.1621 43.1631C57.7686 40.4478 72.3361 40.5875 86.415 43.3229L86.2387 44.2307ZM86.2388 49.3732C72.5689 47.026 58.4547 47.125 44.3001 49.9575L44.1187 49.0507C58.3865 46.1955 72.6153 46.0957 86.3953 48.4617L86.2388 49.3732ZM86.2501 55.7786C72.6036 53.7772 58.5856 53.9363 44.6496 56.7884L44.4642 55.8823C58.5139 53.007 72.6405 52.8479 86.3843 54.8636L86.2501 55.7786ZM86.2584 62.2529C72.5275 60.4985 58.5083 60.7077 44.673 63.6585L44.4801 62.754C58.4321 59.7784 72.5574 59.57 86.3756 61.3356L86.2584 62.2529ZM86.2646 68.7865C72.4404 67.21 58.4114 67.4495 44.6777 70.5283L44.4754 69.6259C58.3305 66.5199 72.466 66.2821 86.3694 67.8676L86.2646 68.7865ZM44.4693 76.4787C58.2089 73.2019 72.3659 72.9548 86.3652 74.4202L86.2689 75.34C72.342 73.8821 58.2948 74.1321 44.6838 77.3782L44.4693 76.4787ZM44.461 83.3415C58.0965 79.8235 72.2568 79.5771 86.3626 80.9725L86.2715 81.8928C72.2327 80.504 58.1889 80.7548 44.6921 84.237L44.461 83.3415ZM44.4505 90.2254C57.9632 86.3957 72.1481 86.1401 86.3613 87.5054L86.2728 88.426C72.1231 87.0668 58.0642 87.3283 44.7026 91.1152L44.4505 90.2254ZM44.4372 97.1399C57.8284 92.9076 72.0297 92.6331 86.3609 93.9982L86.2732 94.9188C72.0033 93.5595 57.941 93.8418 44.7159 98.0217L44.4372 97.1399ZM44.4198 104.186C57.671 99.4094 71.9007 99.0663 86.3611 100.451L86.2729 101.372C71.8743 99.9928 57.8007 100.346 44.7334 105.056L44.4198 104.186ZM44.3985 111.333C57.4909 105.872 71.7509 105.41 86.3619 106.835L86.2722 107.756C71.7264 106.337 57.6433 106.81 44.7546 112.187L44.3985 111.333ZM44.3718 118.704C57.2868 112.324 71.5898 111.684 86.3627 113.149L86.2714 114.07C71.5699 112.612 57.4703 113.265 44.7814 119.533L44.3718 118.704ZM44.3401 126.387C57.0475 118.826 71.3959 117.898 86.363 119.394L86.2711 120.314C71.3867 118.827 57.2729 119.768 44.813 127.182L44.3401 126.387ZM44.3033 134.506C56.7619 125.38 71.1687 124.062 86.3624 125.559L86.2717 126.479C71.1772 124.993 57.0425 126.32 44.8498 135.252L44.3033 134.506ZM44.2632 143.289C56.4079 132.096 70.8844 130.186 86.3604 131.644L86.2737 132.565C70.9256 131.119 56.7614 133.028 44.8899 143.969L44.2632 143.289ZM44.2226 153.066C55.9746 139.089 70.5292 136.319 86.3566 137.679L86.2775 138.601C70.6259 137.256 56.4206 139.995 44.9305 153.661L44.2226 153.066ZM63.4526 146.836C70.5468 143.777 78.2565 143.08 86.3498 143.655L86.2843 144.577C78.2808 144.009 70.7323 144.704 63.8188 147.685C56.9134 150.663 50.6045 155.938 45.101 164.591C45.0715 164.641 45.0407 164.685 45.0215 164.713C44.9974 164.748 44.9866 164.764 44.9782 164.779L44.1749 164.321C44.2048 164.268 44.237 164.222 44.2577 164.192L44.2606 164.187C44.2847 164.153 44.2956 164.136 44.3039 164.122L44.3094 164.112L44.3154 164.103C49.9057 155.31 56.3523 149.898 63.4526 146.836ZM65.6942 153.185C72.0752 150.134 79.0197 149.245 86.3397 149.6L86.2948 150.524C79.0761 150.174 72.2956 151.054 66.093 154.019C59.8941 156.983 54.2359 162.046 49.288 170.121L49.2879 170.121C47.8459 172.473 46.404 174.725 44.9524 176.916L44.1814 176.406C45.6276 174.222 47.0636 171.98 48.4995 169.638C53.5253 161.436 59.3095 156.237 65.6942 153.185ZM67.9561 159.606C73.6233 156.567 79.7964 155.466 86.3234 155.556L86.3106 156.481C79.8967 156.392 73.8881 157.474 68.3932 160.421C62.8996 163.367 57.8859 168.195 53.4897 175.653L53.4895 175.653C50.6658 180.435 47.8214 184.879 44.9564 189.006L44.1967 188.479C47.0479 184.372 49.8801 179.947 52.6932 175.183C57.1592 167.607 62.2877 162.646 67.9561 159.606ZM60.0998 180.393C67.5148 169.228 76.3943 164.358 86.2577 163.077L86.3768 163.994C76.7891 165.239 68.1428 169.954 60.8702 180.904C55.533 188.941 50.243 196.074 44.9208 202.404L44.213 201.809C49.5094 195.51 54.7786 188.405 60.0998 180.393L60.485 180.648L60.0998 180.393ZM67.5182 185.601C73.1077 178.134 79.3776 173.806 86.1767 171.637L86.4578 172.518C79.8595 174.623 73.7442 178.827 68.2585 186.156C60.2513 196.856 52.5574 206.07 44.8989 213.972L44.2348 213.329C51.8593 205.461 59.5279 196.279 67.5181 185.602L67.8883 185.879L67.5182 185.601ZM74.9384 190.81C78.4449 186.665 82.1792 183.615 86.0922 181.438L86.5418 182.246C82.734 184.364 79.0848 187.34 75.6445 191.407L75.6444 191.408C64.7228 204.31 54.7259 215.293 44.892 224.469L44.2611 223.793C54.0569 214.653 64.0271 203.701 74.9384 190.81ZM82.3615 196.018C83.5543 194.773 84.7781 193.637 86.0229 192.611L86.6111 193.325C85.395 194.327 84.1975 195.438 83.0287 196.659L83.0281 196.659C82.5187 197.189 82.0119 197.716 81.5076 198.241C68.0266 212.263 56.3397 224.419 44.8805 234.413L44.2726 233.716C55.7004 223.75 67.3618 211.62 80.8566 197.584C81.3557 197.064 81.8573 196.543 82.3615 196.018ZM69.6001 220.204C74.7538 215.274 80.1715 210.092 86.0028 204.7L86.6307 205.379C80.831 210.742 75.4162 215.921 70.2586 220.854C64.1135 226.731 58.3334 232.26 52.7022 237.334C42.3268 246.683 32.3876 254.557 21.4323 260.385L20.9979 259.569C31.8556 253.793 41.7297 245.976 52.0832 236.647C57.7168 231.57 63.4719 226.066 69.6001 220.204ZM60.1432 240.497C52.0457 247.966 44.3873 254.734 36.3461 260.346L35.8168 259.588C43.8029 254.014 51.4225 247.283 59.5161 239.817C61.4732 238.012 63.4581 236.164 65.4824 234.279C71.8236 228.374 78.5505 222.11 86.0153 215.686L86.6185 216.387C79.1687 222.798 72.4601 229.045 66.1215 234.947C64.095 236.834 62.1062 238.686 60.1432 240.497ZM65.8458 245.218C60.113 250.6 54.6664 255.714 49.1606 260.322L48.5671 259.612C54.0519 255.023 59.4806 249.926 65.2192 244.537C65.5471 244.23 65.876 243.921 66.2059 243.611C72.3079 237.884 78.7746 231.85 86.0203 225.785L86.6139 226.494C79.3904 232.54 72.9409 238.558 66.8388 244.285C66.5068 244.597 66.1758 244.908 65.8458 245.218ZM67.719 253.615C65.3605 255.897 63.0493 258.134 60.7528 260.303L60.1178 259.631C62.3987 257.477 64.7008 255.249 67.0541 252.971C72.9053 247.309 79.0732 241.34 86.0176 235.432L86.6168 236.137C79.6963 242.024 73.5624 247.96 67.719 253.615ZM70.9129 259.652C76.3708 254.114 82.1185 248.325 88.644 242.674L89.2494 243.373C82.7546 248.998 77.0301 254.763 71.5716 260.302L70.9129 259.652ZM32.5139 244.341C23.0158 251.284 13.2591 256.688 2.37022 260.404L2.07149 259.529C12.8567 255.848 22.5312 250.493 31.9682 243.595L32.5139 244.341ZM81.2595 259.657C86.4275 254.279 92.0212 248.854 98.4751 243.764L99.0478 244.49C92.6402 249.543 87.0793 254.936 81.9263 260.297L81.2595 259.657ZM91.4062 259.643C96.4917 254.468 102.132 249.415 108.743 244.889L109.265 245.652C102.717 250.135 97.1227 255.145 92.0658 260.291L91.4062 259.643ZM16.1826 246.022C11.3301 248.757 6.35719 251.104 1.16454 253.081L0.835449 252.217C5.98364 250.256 10.9149 247.93 15.7284 245.216L16.1826 246.022ZM120.263 246.919C113.278 250.774 107.414 255.372 102.227 260.302L101.589 259.632C106.822 254.659 112.748 250.01 119.816 246.109L120.263 246.919ZM125.721 251.567C120.851 254.116 116.572 257.079 112.704 260.322L112.11 259.613C116.023 256.333 120.358 253.33 125.292 250.748L125.721 251.567Z" fill="#41A7D8"/>
</svg>
